<svg xmlns="http://www.w3.org/2000/svg" viewBox="0 0 500 500"><g id="freepik--background-complete--inject-45"><g><path d="M404.371,81.923c-.179-.528-.395-1.042-.648-1.539h0c-3.624-7.469-12.617-10.585-20.086-6.961-3.001,1.456-5.432,3.869-6.911,6.859-1.034,2.104-1.564,4.419-1.55,6.763-.093,8.301,6.562,15.106,14.863,15.198,8.301,.093,15.106-6.562,15.198-14.863,.002-.181,0-.363-.004-.544-.007-1.675-.298-3.337-.862-4.915Z" style="fill:#f0f0f0;"></path><path d="M390.072,92.549c-2.497,0-4.768-1.262-5.636-3.139-.097-.212-.007-.462,.203-.564,.207-.101,.457-.016,.558,.191l.006,.012c.75,1.589,2.717,2.655,4.892,2.655s4.143-1.065,4.892-2.655c.099-.211,.351-.303,.562-.204h.002c.21,.102,.3,.352,.203,.564-.913,1.877-3.184,3.139-5.681,3.139Z" style="fill:#e0e0e0;"></path><path d="M395.708,83.478c.738,0,1.336,.598,1.336,1.336s-.598,1.336-1.336,1.336-1.336-.598-1.336-1.336,.598-1.336,1.336-1.336Z" style="fill:#e0e0e0;"></path><path d="M385.772,84.814c0,.738-.598,1.336-1.336,1.336s-1.336-.598-1.336-1.336,.598-1.336,1.336-1.336h0c.736,.003,1.333,.599,1.336,1.336Z" style="fill:#e0e0e0;"></path></g><g><g><g><path d="M443.92,312.187h-180.746c-3.232,0-5.862-2.63-5.862-5.862V43.051c0-3.232,2.63-5.862,5.862-5.862h180.746c3.232,0,5.862,2.629,5.862,5.862V306.324c0,3.233-2.63,5.862-5.862,5.862ZM263.174,37.439c-3.095,0-5.612,2.518-5.612,5.612V306.324c0,3.095,2.518,5.612,5.612,5.612h180.746c3.095,0,5.612-2.517,5.612-5.612V43.051c0-3.094-2.518-5.612-5.612-5.612h-180.746Z" style="fill:#e0e0e0;"></path><path d="M235.493,312.187H54.746c-3.232,0-5.862-2.63-5.862-5.862V43.051c0-3.232,2.629-5.862,5.862-5.862H235.493c3.232,0,5.862,2.629,5.862,5.862V306.324c0,3.233-2.63,5.862-5.862,5.862ZM54.746,37.439c-3.094,0-5.612,2.518-5.612,5.612V306.324c0,3.095,2.518,5.612,5.612,5.612H235.493c3.095,0,5.612-2.517,5.612-5.612V43.051c0-3.094-2.518-5.612-5.612-5.612H54.746Z" style="fill:#e0e0e0;"></path></g><rect x="0" y="373.256" width="500" height=".25" style="fill:#e0e0e0;"></rect></g><rect x="51.672" y="387.521" width="16.06" height=".25" style="fill:#e0e0e0;"></rect><rect x="170.352" y="384.811" width="53.53" height=".25" style="fill:#e0e0e0;"></rect><rect x="68.732" y="396.811" width="36.25" height=".25" style="fill:#e0e0e0;"></rect><rect x="378.352" y="384.681" width="43.19" height=".25" style="fill:#e0e0e0;"></rect><rect x="430.452" y="384.681" width="6.33" height=".25" style="fill:#e0e0e0;"></rect><rect x="316.212" y="390.911" width="53.89" height=".25" style="fill:#e0e0e0;"></rect></g><g><circle cx="308.31" cy="215.994" r="13.811" transform="translate(-64.416 268.758) rotate(-43.072)" style="fill:#e0e0e0;"></circle><path d="M300.336,225.574c.265-.57,2.759-4.939,8.32-4.94,6.169,0,8.404,4.384,8.404,4.384,0,0-3.482,3.129-8.195,3.37-4.568,.234-8.529-2.815-8.529-2.815Z" style="fill:#f5f5f5;"></path><path d="M314.037,213.758c0,3.027-2.454,5.482-5.482,5.482s-5.482-2.454-5.482-5.482,2.454-5.482,5.482-5.482,5.482,2.454,5.482,5.482Z" style="fill:#f5f5f5;"></path></g><g><circle cx="55.658" cy="346.339" r="13.811" transform="translate(-295.125 345.801) rotate(-80.783)" style="fill:#e0e0e0;"></circle><path d="M47.684,355.919c.265-.571,2.759-4.939,8.32-4.94,6.169,0,8.404,4.384,8.404,4.384,0,0-3.482,3.129-8.195,3.37-4.568,.234-8.529-2.814-8.529-2.814Z" style="fill:#f5f5f5;"></path><path d="M61.385,344.103c0,3.028-2.454,5.482-5.482,5.482s-5.482-2.454-5.482-5.482,2.454-5.482,5.482-5.482,5.482,2.454,5.482,5.482Z" style="fill:#f5f5f5;"></path></g><g><circle cx="320.538" cy="374.006" r="24.165" style="fill:#e0e0e0;"></circle><path d="M306.587,390.769c.463-.998,4.827-8.641,14.557-8.642,10.793-.001,14.704,7.67,14.704,7.67,0,0-6.092,5.474-14.338,5.897-7.992,.41-14.923-4.924-14.923-4.924Z" style="fill:#f5f5f5;"></path><circle cx="320.968" cy="370.095" r="9.591" style="fill:#f5f5f5;"></circle></g><g><circle cx="285.781" cy="68.806" r="13.34" transform="translate(35.05 222.23) rotate(-45)" style="fill:#e0e0e0;"></circle><path d="M278.079,78.06c.256-.551,2.664-4.771,8.036-4.771,5.959,0,8.117,4.234,8.117,4.234,0,0-3.363,3.022-7.915,3.255-4.412,.226-8.238-2.719-8.238-2.719Z" style="fill:#f5f5f5;"></path><path d="M291.313,66.647c0,2.924-2.371,5.295-5.295,5.295s-5.295-2.371-5.295-5.295,2.37-5.295,5.295-5.295,5.295,2.371,5.295,5.295Z" style="fill:#f5f5f5;"></path></g><g><path d="M440.617,280.573c-.333-.96-.731-1.897-1.191-2.803h0c-6.606-13.597-22.984-19.263-36.581-12.657-13.597,6.606-19.263,22.985-12.657,36.581,6.606,13.597,22.984,19.263,36.581,12.657,9.493-4.612,15.488-14.272,15.408-24.826-.009-3.051-.537-6.078-1.56-8.953Z" style="fill:#e0e0e0;"></path><path d="M433.076,281.853c-1.678-2.612-4.765-1.532-6.334,.555-1.645-2.024-4.782-2.974-6.349-.3-2.657,4.515,3.084,8.53,5.779,10.089l.773,.443,.752-.475c2.642-1.666,8.214-5.904,5.38-10.311Z" style="fill:#fafafa;"></path><path d="M409.494,282.296c-1.643-2.636-4.744-1.606-6.34,.453-1.621-2.041-4.739-3.046-6.355-.399-2.721,4.475,2.949,8.581,5.636,10.185l.754,.453,.767-.463c2.658-1.623,8.306-5.782,5.538-10.229Z" style="fill:#fafafa;"></path><path d="M413.406,305.017c-5.205-1.195-7.074-7.121-7.32-10.347,.009-.421,.389-.755,.848-.747,.403,.007,.742,.278,.805,.643,0,.094,.78,8.974,7.372,9.181,6.591,.207,7.669-9.247,7.68-9.35,.043-.414,.444-.717,.895-.678h.008c.447,.034,.779,.393,.742,.802l-.003,.026c0,.451-1.252,10.977-9.374,10.714-.559-.026-1.113-.109-1.653-.245Z" style="fill:#ebebeb;"></path><path d="M432.671,293.314c-.534,.544-1.17,.801-1.417,.554-.246-.246,0-.883,.513-1.437,.513-.554,1.16-.79,1.417-.554,.257,.236,.02,.893-.513,1.437Z" style="fill:#f5f5f5;"></path><path d="M434.929,293.581c-.534,.554-1.17,.801-1.417,.554s0-.883,.513-1.427c.513-.544,1.16-.801,1.407-.554,.246,.246,.041,.883-.503,1.427Z" style="fill:#f5f5f5;"></path><path d="M398.246,293.683c.585,.493,1.242,.667,1.458,.4,.216-.267-.072-.873-.657-1.365-.585-.493-1.242-.667-1.468-.4-.226,.267,.072,.883,.667,1.365Z" style="fill:#f5f5f5;"></path><path d="M396.018,294.197c.585,.493,1.242,.667,1.468,.4s-.072-.883-.667-1.365c-.595-.483-1.242-.667-1.458-.4-.216,.267,.072,.873,.657,1.365Z" style="fill:#f5f5f5;"></path></g><g><path d="M93.546,92.114c-.333-.96-.731-1.896-1.191-2.803h0c-6.606-13.597-22.984-19.263-36.581-12.657-13.597,6.607-19.264,22.984-12.657,36.581,6.606,13.597,22.985,19.263,36.581,12.657,9.493-4.612,15.488-14.272,15.408-24.826-.009-3.051-.537-6.079-1.56-8.953Z" style="fill:#ebebeb;"></path><path d="M86.004,93.394c-1.678-2.612-4.765-1.532-6.334,.555-1.645-2.024-4.782-2.974-6.349-.3-2.658,4.515,3.084,8.53,5.779,10.089l.773,.442,.752-.475c2.642-1.666,8.214-5.904,5.38-10.311Z" style="fill:#fafafa;"></path><path d="M62.422,93.838c-1.643-2.636-4.744-1.606-6.34,.453-1.621-2.041-4.739-3.046-6.355-.399-2.721,4.475,2.949,8.581,5.636,10.185l.754,.453,.767-.463c2.658-1.623,8.306-5.782,5.538-10.229Z" style="fill:#fafafa;"></path><path d="M66.334,116.558c-5.205-1.195-7.074-7.121-7.32-10.347,.009-.421,.389-.755,.848-.747,.403,.007,.742,.278,.805,.643,0,.094,.78,8.974,7.372,9.181,6.591,.207,7.669-9.247,7.68-9.35,.043-.414,.444-.717,.895-.678h.008c.447,.034,.779,.393,.742,.802l-.003,.026c0,.451-1.252,10.978-9.374,10.714-.559-.026-1.113-.109-1.653-.245Z" style="fill:#e0e0e0;"></path><path d="M85.599,104.855c-.534,.544-1.17,.801-1.417,.554s0-.883,.513-1.437c.513-.554,1.16-.791,1.417-.554,.257,.236,.02,.893-.513,1.437Z" style="fill:#f5f5f5;"></path><path d="M87.858,105.122c-.534,.555-1.17,.801-1.417,.555-.246-.247,0-.883,.513-1.427,.513-.544,1.16-.801,1.407-.554s.041,.883-.503,1.427Z" style="fill:#f5f5f5;"></path><path d="M51.174,105.225c.585,.493,1.242,.667,1.458,.4,.216-.267-.072-.873-.657-1.365-.585-.493-1.242-.667-1.468-.4s.072,.883,.667,1.366Z" style="fill:#f5f5f5;"></path><path d="M48.946,105.738c.585,.493,1.242,.667,1.468,.4,.226-.267-.072-.883-.667-1.365-.596-.483-1.242-.667-1.458-.4-.216,.267,.072,.873,.657,1.365Z" style="fill:#f5f5f5;"></path></g></g><g id="freepik--Shadow--inject-45"><path d="M463.596,440.162c0,3.387-93.516,6.132-208.875,6.132s-208.875-2.746-208.875-6.132,93.516-6.132,208.875-6.132,208.875,2.746,208.875,6.132Z" style="fill:#f5f5f5;"></path></g><g id="freepik--Plant--inject-45"><g id="freepik--freepik--Plant--inject-111--inject-45"><polygon points="421.517 415.618 417.212 439.241 391.738 439.241 387.174 415.618 421.517 415.618" style="fill:#263238;"></polygon><path d="M401.512,413.224c-.713-8.983-5.643-18.071-13.574-24.24-1.981-1.536-6.141-4.581-2.768-6.189,3.853-1.84,11.245,6.752,12.281,8.341-2.188-6.845-8.817-11.802-16.01-14.642-3.555-1.403-6.944-2.734-3.157-4.819,3.787-2.085,11.983,2.972,13.881,5.143-4.492-5.011-10.168-10.028-15.986-13.027-6.422-3.31-3.522-8.83,3.099-4.561,4.102,2.648,10.848,9.267,10.848,9.267,0,0-10.599-17.005-7.4-18.534,4.144-1.986,11.403,21.182,13.408,25.75-.539-3.787-1.044-12.948,2.486-13.345,3.224-.357,2.436,22.453,3.182,26.478,.472,1.754,.688,2.648,1.061,4.415,.348-3.038,2.486-11.048,5.685-10.121,2.718,.781,1.036,6.778,.331,9.625-1.707,6.891-3.431,13.557-3.447,20.626l-3.92-.166Z" style="fill:#BA68C8;"></path><path d="M398.862,414.445c2.578-4.58,3.904-9.524,5.323-14.608,.587-2.1,1.694-6.596,3.739-6.106,2.409,.572,.859,6.537-.028,8.63,.889-1.007,1.355-1.506,2.303-2.468,1.956-2.331,9.8-17.378,11.755-15.966,2.139,1.55-1.543,7.292-3.278,9.544,2.97-2.221,16.151-14.552,18.105-11.75,1.51,2.161-11.575,9.282-11.575,9.282,0,0,6.788-1.812,10.412-2.023,5.848-.338,5.702,4.296,.335,4.086-4.862-.19-10.372,.977-15.113,2.574,2.023-.71,9.178-.98,10.864,1.756,1.687,2.736-.993,2.356-3.808,1.962-5.694-.797-11.799-.017-15.721,3.61,1.252-.648,9.181-3.501,11-.899,1.593,2.276-2.213,2.722-4.057,2.991-7.39,1.087-13.909,5.162-17.659,10.713l-2.597-1.328Z" style="fill:#BA68C8;"></path><g><path d="M407.342,416.53c.829-13.342,6.688-26.842,16.101-35.999,2.345-2.279,7.276-6.804,3.315-9.19-4.566-2.726-13.342,10.027-14.56,12.381,2.585-10.16,10.458-17.519,18.985-21.737,4.218-2.088,8.237-4.052,3.746-7.152-4.492-3.099-14.221,4.417-16.458,7.632,5.328-7.458,12.057-14.917,18.952-19.342,7.616-4.906,4.143-13.11-3.671-6.771-4.914,3.928-12.903,13.731-12.903,13.731,0,0,12.563-25.242,8.768-27.562-4.873-2.983-13.516,31.49-15.894,38.228,.63-5.619,1.226-19.226-3-19.814-3.82-.53-2.884,33.33-3.771,39.314-.563,2.61-.829,3.92-1.251,6.555-.423-4.508-2.934-16.4-6.754-15.024-3.215,1.16-1.226,10.06-.389,14.287,2.03,10.226,4.077,20.129,4.085,30.621l4.699-.158Z" style="fill:#BA68C8;"></path><path d="M407.342,416.53c.829-13.342,6.688-26.842,16.101-35.999,2.345-2.279,7.276-6.804,3.315-9.19-4.566-2.726-13.342,10.027-14.56,12.381,2.585-10.16,10.458-17.519,18.985-21.737,4.218-2.088,8.237-4.052,3.746-7.152-4.492-3.099-14.221,4.417-16.458,7.632,5.328-7.458,12.057-14.917,18.952-19.342,7.616-4.906,4.143-13.11-3.671-6.771-4.914,3.928-12.903,13.731-12.903,13.731,0,0,12.563-25.242,8.768-27.562-4.873-2.983-13.516,31.49-15.894,38.228,.63-5.619,1.226-19.226-3-19.814-3.82-.53-2.884,33.33-3.771,39.314-.563,2.61-.829,3.92-1.251,6.555-.423-4.508-2.934-16.4-6.754-15.024-3.215,1.16-1.226,10.06-.389,14.287,2.03,10.226,4.077,20.129,4.085,30.621l4.699-.158Z" style="fill:#BA68C8;"></path></g><rect x="383.632" y="408.805" width="40.962" height="7.882" transform="translate(808.226 825.492) rotate(180)" style="fill:#263238;"></rect></g></g><g id="freepik--Character_4--inject-45"><g><g><circle cx="396.911" cy="212.292" r="37.709" style="fill:#BA68C8;"></circle><path d="M435.305,230.405c-.069,0-.14-.014-.207-.045-.252-.115-.362-.411-.248-.663,5.312-11.659,4.215-27.081-2.669-37.502-.152-.23-.089-.541,.142-.692,.229-.152,.541-.09,.692,.142,7.064,10.693,8.192,26.512,2.745,38.468-.084,.184-.266,.292-.455,.292Z" style="fill:#BA68C8;"></path></g><g><path d="M419.395,225.462c-.104,.197-.216,.396-.339,.59,4.195,2.977,.235,7.303-.989,8.001-.929,.545-1.935,.956-2.985,1.22-4.952,1.287-9.351-1.169-11.706-2.373-3.387-1.737-3.523-8.404-5.556-11.776-2.658-4.412-7.288-15.393-3.905-23.926,1.625-4.016,3.223-5.628,3.223-5.628,1.964-2.091,5.07-2.546,7.849-1.781,2.779,.765,5.143,2.627,7.239,4.708,3.785,3.685,6.603,8.182,8.233,13.135,1.492,4.689,.041,6.32-.862,9.371l.023,.094c.955,2.732,1.071,5.913-.226,8.365Z" style="fill:#263238;"></path><path d="M422.131,238.046c-1.954-2.486-19.652-4.499-19.652-4.499l-10.874,1.248s-14.232,2.54-18.852,5.026c-.326,.176-.636,.384-.936,.61,6.666,5.949,15.455,9.569,25.093,9.569,10.143,0,19.344-4.012,26.121-10.527-.322-.587-.627-1.081-.901-1.429Z" style="fill:#BA68C8;"></path><path d="M422.131,238.046c-1.954-2.486-19.652-4.499-19.652-4.499l-10.874,1.248s-14.232,2.54-18.852,5.026c-.326,.176-.636,.384-.936,.61,6.666,5.949,15.455,9.569,25.093,9.569,10.143,0,19.344-4.012,26.121-10.527-.322-.587-.627-1.081-.901-1.429Z" style="fill:#fff; opacity:.4;"></path><path d="M406.06,227.535c-1.281,2.916-1.271,5.73,.482,8.404,0,0,6.6,6.701,2.015,6.977-4.585,.276-13.157-4.027-15.016-7.764,0,0,2.496-4.049,1.805-9.32-.691-5.271-1.455-7.354-1.455-7.354l12.17,9.057Z" style="fill:#b97964;"></path><path d="M389.41,206.911c.591,8.986,.641,12.789,5.125,17.489,6.752,7.057,17.443,4.634,19.542-4.3,1.824-8.041,.598-21.36-8.06-25.121-8.658-3.761-17.19,2.935-16.606,11.932Z" style="fill:#b97964;"></path><path d="M392.687,207c1.856,.835,1.931,9.303-2.419,9.136-4.35-.167-3.672-11.875,2.419-9.136Z" style="fill:#263238;"></path><g><path d="M385.76,214.787c.994,1.902,2.685,3.141,4.263,3.606,2.374,.7,3.771-3.105,3.051-5.541-.648-2.193-2.946-3.722-5.299-3.347-2.319,.37-3.151,3.107-2.015,5.282Z" style="fill:#b97964;"></path><path d="M390.848,214.763c-.136,0-.246-.108-.25-.244-.02-.799-.363-1.574-.942-2.125-.578-.551-1.361-.859-2.168-.84-.124,.007-.253-.106-.256-.245-.003-.138,.106-.252,.244-.255,.916-.018,1.852,.335,2.525,.979,.674,.642,1.073,1.544,1.097,2.475,.003,.138-.105,.253-.244,.256h-.006Z" style="opacity:.2;"></path></g><path d="M406.901,196.148c-.841-2.537-3.722-4.611-8.869-5.512l-.248-.044c-4.906-.809-10.19-2.151-12.032,3.303-4.832,14.236-12.907,12.658-10.981,16.874,.597,1.089,1.774,1.731,3.013,1.643,.31-.014,.614-.089,.895-.22-.344,.341-.75,.696-1.114,1.07-1.999,2.066-3.921,4.483-4.625,7.342-.163,.47-.237,.967-.22,1.464,.078,2.234,1.951,3.981,4.185,3.904-.178,.205-2.213,2.508-2.527,3.088-3.465,6.383-.736,13.401,8.199,10.479,0,0,6.029,2.189,8.676-3.821,0,0,4.311-.343,5.697-4.268h0c.047-.09,.087-.182,.122-.277,1.317-2.858,1.291-6.154-.07-8.99-.782-1.602-1.638-3.157-2.42-4.76-.533-.958-.86-2.004-1.018-3.077,.162-.345,.319-.695,.492-1.028l.212-.375c1.207-2.332,3.021-4.295,5.25-5.682,5.955-3.35,8.621-7.686,7.382-11.113Z" style="fill:#263238;"></path><path d="M401.295,210.277c.005,.961,.492,1.769,1.087,1.806,.595,.037,1.074-.712,1.068-1.672-.005-.96-.492-1.769-1.087-1.806-.595-.037-1.074,.712-1.069,1.672Z" style="fill:#263238;"></path><path d="M410.232,210.618c.007,.931,.494,1.715,1.087,1.752,.593,.037,1.069-.688,1.062-1.619-.007-.931-.494-1.715-1.087-1.752-.593-.037-1.069,.688-1.062,1.619Z" style="fill:#263238;"></path><path d="M399.542,206.86c.115,.018,.233-.011,.326-.09,1.449-1.235,3.002-.717,3.02-.71,.23,.077,.471-.045,.534-.28,.062-.235-.075-.491-.308-.572-.081-.028-2.03-.68-3.828,.853-.179,.153-.194,.436-.034,.632,.078,.094,.182,.151,.289,.168Z" style="fill:#263238;"></path><path d="M413.424,206.195c.093-.027,.171-.092,.215-.189,.091-.202,0-.467-.201-.591-2.023-1.249-3.595-.428-3.661-.391-.187,.101-.241,.356-.122,.571,.119,.214,.367,.306,.553,.207,.061-.033,1.29-.65,2.899,.344,.104,.064,.218,.079,.315,.05Z" style="fill:#263238;"></path><path d="M407.819,210.076s1.278,3.45,2.79,5.63c.264,.381,.069,.913-.372,1.055-1.136,.366-2.43-.061-2.43-.061l.012-6.624Z" style="fill:#a24e3f;"></path><path d="M402.021,208.63l2.1-.406s-1.201,1.504-2.1,.406Z" style="fill:#263238;"></path><path d="M411.079,209.012l2.1-.406s-1.201,1.504-2.1,.406Z" style="fill:#263238;"></path><g><path d="M407.133,219.243c-.71,.869-1.639,2.601-1.639,2.601-.172-.056-.344-.112-.513-.176-2.315-.816-3.12-1.959-3.31-2.98-.102-.558-.012-1.084,.114-1.494,.141-.476,.351-.782,.351-.782,.969,1.166,3.069,2.093,4.211,2.541,.476,.193,.785,.291,.785,.291Z" style="fill:#263238;"></path><path d="M406.348,218.952l-.503,.755c-2.179-.774-3.609-1.611-4.059-2.513,.141-.476,.351-.782,.351-.782,.969,1.166,3.069,2.093,4.211,2.541Z" style="fill:#fff;"></path><path d="M404.982,221.667c-2.315-.816-3.12-1.959-3.31-2.98,.778,.308,1.682,.767,2.391,1.416,.544,.494,.799,1.05,.918,1.564Z" style="fill:#d7504d;"></path></g></g></g></g><g id="freepik--Character_3--inject-45"><g><g><circle cx="329.979" cy="285.553" r="42.712" transform="translate(-85.65 152.588) rotate(-23.132)" style="fill:#BA68C8;"></circle><circle cx="329.979" cy="285.553" r="42.712" transform="translate(-85.65 152.588) rotate(-23.132)" style="fill:#fff; opacity:.4;"></circle></g><path d="M358.545,314.724c-2.213-2.816-22.343-5.739-22.343-5.739l-12.232,2.058s-16.12,2.877-21.353,5.693c-.37,.199-.766,.818-.766,.951,7.551,6.738,17.211,10.579,28.128,10.579,11.489,0,21.91-4.545,29.586-11.923-.365-.664-.711-1.224-1.02-1.618Z" style="fill:#263238;"></path><g><path d="M289.078,311.279c-.162,0-.321-.079-.417-.225-7.989-12.095-9.266-29.985-3.104-43.507,.115-.252,.411-.36,.662-.248,.252,.114,.362,.411,.248,.662-6.026,13.226-4.782,30.719,3.027,42.542,.152,.23,.089,.54-.142,.692-.085,.057-.181,.083-.275,.083Z" style="fill:#BA68C8;"></path><path d="M287.635,264.678c-.057,0-.114-.011-.17-.031-.251-.096-.387-.361-.302-.616,.093-.276,1.46-2.599,2.268-3.958,.14-.238,.448-.316,.685-.175,.238,.141,.316,.447,.175,.685-.985,1.66-2.086,3.55-2.185,3.782-.082,.192-.271,.313-.471,.313Z" style="fill:#BA68C8;"></path></g><g><path d="M361.333,310.692c1.127-9.069-7.676-13.411-7.28-26.508,.678-22.475-20.57-23.57-28.861-22.729-8.29,.841-8.382,9.867-8.382,9.867,0,0-12.18,4.546-6.44,21.721,5.213,15.6-6.281,8.55-1.877,20.745,17.173-4.451,29.001-8.353,43.399-4.115l.253-6.621,2.542,7.727,6.647-.088Z" style="fill:#263238;"></path><g><path d="M340.288,320.924c2.366-.893,.776-7.861-1.369-9.274-2.418-1.594-3.643-3.033-3.454-5.501,.09-1.398,.461-2.865,.92-4.3l-2.746-1.331-10.128-8.541c1.577,5.652,2.304,15.799-2.283,19.635,0,0,3.464,2.31,8.505,5.924,0,0,7.577,4.511,10.554,3.388Z" style="fill:#ffaf6b;"></path><path d="M335.437,306.69c-2.69-1.287-5.728-3.666-5.662-6.701,.036-1.279,.202-2.502,.436-3.298l5.804,6.404c-.327,1.145-.417,1.891-.578,3.595Z" style="opacity:.2;"></path><path d="M320.765,281.572c1.729,9.465,2.261,13.496,7.634,18.058,8.082,6.863,19.25,3.309,20.364-6.325,1.003-8.672-1.994-22.692-11.722-25.863-9.584-3.124-18.006,4.666-16.276,14.13Z" style="fill:#ffaf6b;"></path><path d="M333.404,283.57c.137,1.006,.758,1.785,1.387,1.742,.628-.043,1.027-.893,.889-1.899-.137-1.005-.758-1.785-1.387-1.742-.629,.043-1.027,.893-.889,1.899Z" style="fill:#263238;"></path><path d="M342.812,282.698c.135,.974,.753,1.729,1.38,1.686,.627-.043,1.025-.868,.89-1.842-.135-.974-.753-1.729-1.38-1.686-.627,.043-1.025,.868-.89,1.842Z" style="fill:#263238;"></path><path d="M331.097,280.232c.123,.003,.243-.044,.33-.139,1.348-1.493,3.046-1.164,3.066-1.159,.252,.049,.487-.112,.521-.367,.033-.255-.146-.504-.401-.557-.089-.018-2.22-.434-3.893,1.42-.167,.185-.144,.483,.051,.667,.094,.088,.211,.133,.326,.136Z" style="fill:#263238;"></path><path d="M345.548,277.626c.093-.041,.167-.12,.2-.228,.067-.224-.063-.489-.292-.592-2.291-1.03-3.824,.047-3.889,.094-.182,.131-.204,.406-.049,.615,.154,.208,.426,.27,.608,.141,.059-.043,1.262-.858,3.084-.038,.118,.053,.239,.052,.337,.009Z" style="fill:#263238;"></path><path d="M340.21,282.463s1.813,3.438,3.697,5.514c.329,.363,.198,.947-.245,1.157-1.139,.539-2.554,.271-2.554,.271l-.898-6.941Z" style="fill:#e97f3f;"></path></g><path d="M333.938,281.746l2.144-.714s-1.051,1.741-2.144,.714Z" style="fill:#263238;"></path><path d="M343.479,280.899l2.144-.714s-1.051,1.741-2.144,.714Z" style="fill:#263238;"></path><path d="M324.373,284.571s4.258-7.851,3.467-13.829c0,0,9.202-3.301,17.616,6.063,1.34,1.492,2.293,4.095,3.571,6.298,0,0,.171-18.318-16.074-18.362-16.219-.044-17.354,22.855-8.824,29.761,0,0-2.389-5.022,.244-9.932Z" style="fill:#263238;"></path><g><path d="M318.575,289.608c1.302,1.856,3.244,2.921,4.961,3.192,2.583,.407,3.523-3.771,2.434-6.225-.98-2.208-3.598-3.494-6.011-2.777-2.378,.707-2.874,3.688-1.384,5.81Z" style="fill:#ffaf6b;"></path><path d="M323.867,288.871c-.121,0-.228-.088-.247-.211-.131-.839-.6-1.606-1.285-2.106-.686-.502-1.559-.712-2.397-.585-.132,.024-.264-.072-.285-.209s.072-.264,.209-.285c.966-.146,1.977,.097,2.769,.675s1.333,1.465,1.484,2.433c.021,.137-.072,.265-.208,.286-.014,.002-.026,.003-.039,.003Z" style="opacity:.2;"></path></g><g><path d="M340.288,291.485c-.697,.938-1.579,2.784-1.579,2.784-.182-.05-.364-.1-.542-.159-2.447-.737-3.339-1.888-3.585-2.94-.132-.576-.065-1.127,.047-1.56,.124-.501,.327-.83,.327-.83,1.064,1.166,3.292,2.029,4.502,2.44,.505,.177,.83,.264,.83,.264Z" style="fill:#263238;"></path><path d="M339.458,291.221l-.487,.809c-2.303-.7-3.831-1.502-4.342-2.418,.124-.501,.327-.83,.327-.83,1.064,1.166,3.292,2.029,4.502,2.44Z" style="fill:#fff;"></path><path d="M338.167,294.111c-2.447-.737-3.339-1.888-3.585-2.94,.824,.283,1.787,.717,2.555,1.357,.59,.488,.882,1.054,1.03,1.583Z" style="fill:#d7504d;"></path></g></g></g></g><g id="freepik--Character_2--inject-45"><g><g><circle cx="329.486" cy="136.594" r="46.531" transform="translate(-.082 272.989) rotate(-45)" style="fill:#BA68C8;"></circle><circle cx="329.486" cy="136.594" r="46.531" transform="translate(-.082 272.989) rotate(-45)" style="fill:#fff; opacity:.7;"></circle></g><path d="M360.606,168.372c-2.411-3.068-22.778-5.301-22.778-5.301l-14.889,1.29s-17.561,3.134-23.262,6.202c-.403,.217-.785,.474-1.155,.753,8.226,7.34,19.071,11.808,30.963,11.808,12.516,0,23.869-4.951,32.232-12.989-.397-.724-.774-1.334-1.111-1.763Z" style="fill:#BA68C8;"></path><g><path d="M336.481,102.471c-14.501-4.93-19.707,6.95-19.707,6.95-1.971,.544-3.172,1.333-3.866,2.22-1.124,.507-2.308,1.404-3.33,2.981-3.037,4.689-1.841,10.702-.045,13.811,1.265,2.19,7.149-2.062,8.654-8.433,7.208,2.444,21.169,7.088,23.651,7.261,3.373,.235,8.673-3.861,9.314-9.347,.965-8.252-5.531-12.335-14.671-15.443Z" style="fill:#263238;"></path><path d="M322.54,164.264s1.675-7.131-1.396-20.044c.001-.014,.686-.278,.687-.292-.422-1.806-.883-3.478-1.324-4.929-.01-.042-.008-.056-.008-.056l16.893,11.613c-.607,4.052,.471,11.991,1.18,15.356,0,0,1.906,6.125-6.112,5.998-5.858-.093-9.919-7.647-9.919-7.647Z" style="fill:#ffb2a8;"></path><g style="opacity:.2;"><path d="M328.312,153.487c2.093,2.396,5.733,3.746,9.069,3.817-.048-.297-.039-.743-.074-1.039-.057-.465-.052-1.176-.078-1.664-.027-.6-.037-1.252-.006-1.873,.029-.246,.128-.211,.156-.457l.059-.507-10.106-3.43c-.82,.598-.708,3.207,.98,5.153Z"></path></g><path d="M314.633,128.688c-2.421-10.85,7.004-20.84,18.257-18.23,11.421,2.649,15.512,18.675,14.729,28.895-.869,11.355-13.593,18.531-23.268,11.399-6.431-4.741-7.297-11.214-9.718-22.064h0Z" style="fill:#ffb2a8;"></path><path d="M322.818,111.236c-4.034,.818-12.317,8.848-12.317,8.848,0,0,.526,3.115,1.587,4.971-.453,.384-.875,.796-1.248,1.243-.433,.523-.81,1.088-1.109,1.705-.071,.14-.135,.284-.198,.43,.145,.4,.333,.812,.571,1.235,1.175,2.098,4.904,6.733,8.151,10.632-.272-.546-.517-1.136-.747-1.785-.766-2.164-1.715-5.174-2.699-8.804,.876,.027,1.509,.267,2.083,.571,4.189,2.22,5.716,4.3,7.479,2.255,1.071-1.244-.275-5.209-1.158-8.582-.222-.885-.663-2.879-.69-4.833-.036-2.617,2.587-4.764,2.587-4.764,0,0,.152-.186,.308-.465,3.588,2.309,9.913,5.175,16.143,2.109,9.304-4.579-10.748-13.643-18.745-4.767Z" style="fill:#263238;"></path><path d="M330.34,131.087c.1,1.131,.781,1.989,1.521,1.917,.74-.073,1.259-1.049,1.159-2.18-.1-1.131-.781-1.989-1.52-1.917-.74,.073-1.259,1.048-1.159,2.18Z" style="fill:#263238;"></path><path d="M341.305,130.347c.1,1.131,.78,1.989,1.52,1.917,.74-.073,1.259-1.048,1.159-2.18-.1-1.131-.78-1.989-1.52-1.916-.74,.073-1.259,1.048-1.159,2.18Z" style="fill:#263238;"></path><path d="M338.041,128.99s4.077,5.304,5.427,7.491c-1.449,1.561-4.219,1.145-4.219,1.145l-1.208-8.636Z" style="fill:#e8675b;"></path><path d="M327.434,124.97c.177,.055,.378,.015,.525-.122,1.701-1.586,3.483-1.226,3.669-1.185,.285,.068,.575-.107,.646-.391,.071-.284-.104-.57-.388-.639-.101-.024-2.493-.57-4.652,1.445-.216,.201-.228,.537-.028,.749,.065,.069,.143,.116,.228,.142Z" style="fill:#263238;"></path><g><path d="M311.605,136.576c1.177,2.87,3.573,4.914,5.946,5.842,3.57,1.397,4.514-2.455,3.871-6.037-.579-3.224-1.877-7.098-5.627-6.964-3.695,.133-5.535,3.877-4.19,7.158Z" style="fill:#ffb2a8;"></path><path d="M319.478,136.397c-.116,0-.221-.082-.245-.2-.19-.935-.624-1.809-1.256-2.526-.41-.465-1.079-1.048-1.933-1.18-.768-.119-1.559,.222-1.883,.808-.067,.121-.22,.164-.34,.098-.121-.067-.164-.219-.098-.34,.429-.775,1.414-1.211,2.396-1.06,1.002,.155,1.767,.816,2.231,1.344,.689,.783,1.163,1.736,1.371,2.757,.027,.135-.06,.267-.195,.295-.017,.003-.033,.005-.05,.005Z" style="opacity:.2;"></path></g><path d="M346.257,124.091c.096-.03,.185-.088,.254-.172,.186-.228,.155-.564-.07-.75-2.261-1.866-4.59-1.127-4.699-1.107-.279,.09-.435,.39-.348,.67,.087,.279,.381,.434,.659,.347,.096-.035,1.897-.581,3.712,.917,.142,.117,.327,.147,.491,.096Z" style="fill:#263238;"></path><g><path d="M331.125,139.994s2.732,1.698,7.52,1.703c0,0-.868,3.281-3.938,3.01-3.712-.328-3.582-4.713-3.582-4.713Z" style="fill:#fff;"></path><path d="M334.585,138.557c1.756,.053,3.474,.657,4.779,1.833,.504,.454,.931,.976,1.106,1.533,.56,1.782-5.763,.535-8.356-.459-2.593-.994-1.994-2.009-.531-2.608,.701-.287,1.921-.331,3.002-.298Z" style="fill:#263238;"></path></g><path d="M322.751,121.658s-4.611,2.964-9.224,2.112c-4.613-.852-5.809-1.87-5.809-1.87l.334,2.511s3.892,2.292,8.657,2.032c4.765-.26,6.783-1.45,6.783-1.45l-.742-3.335Z" style="fill:#fff; opacity:.3;"></path></g><g><path d="M284.93,164.575c-.162,0-.321-.079-.417-.225-8.695-13.164-10.085-32.637-3.379-47.354,.115-.251,.411-.362,.662-.248,.252,.115,.362,.411,.248,.663-6.571,14.42-5.213,33.496,3.303,46.388,.152,.23,.089,.541-.142,.692-.085,.056-.181,.083-.275,.083Z" style="fill:#BA68C8;"></path><path d="M283.357,113.808c-.057,0-.113-.01-.169-.031-.252-.094-.388-.361-.303-.616,.1-.296,1.587-2.824,2.466-4.304,.141-.237,.448-.315,.685-.175,.237,.141,.316,.448,.175,.686-1.077,1.815-2.278,3.878-2.382,4.125-.081,.193-.272,.315-.472,.315Z" style="fill:#BA68C8;"></path></g></g></g><g id="freepik--Character_1--inject-45"><g><g><rect x="74.912" y="127.999" width="6.267" height="38.518" style="fill:#BA68C8;"></rect></g><g><rect x="256.504" y="127.999" width="6.267" height="38.518" style="fill:#BA68C8;"></rect><rect x="256.504" y="127.999" width="6.267" height="38.518" style="isolation:isolate; opacity:.2;"></rect></g><g><rect x="256.011" y="172.326" width="6.267" height="39.351" style="fill:#BA68C8;"></rect><rect x="256.011" y="172.326" width="6.267" height="39.351" style="isolation:isolate; opacity:.2;"></rect></g><g><path d="M107.972,80.515h122.037c15.57,0,28.211,12.641,28.211,28.211V418.667c0,11.863-9.632,21.495-21.495,21.495H98.074c-10.107,0-18.313-8.206-18.313-18.313V108.726c0-15.57,12.641-28.211,28.211-28.211Z" style="fill:#BA68C8;"></path><path d="M108.251,87.779h121.48c11.746,0,21.282,9.536,21.282,21.282V419.677c0,7.279-5.91,13.188-13.188,13.188H100.157c-7.279,0-13.188-5.909-13.188-13.188V109.062c0-11.746,9.536-21.282,21.282-21.282Z" style="fill:#fff;"></path></g><path d="M143.423,85.916c0,.207,4.26,6.269,6.368,9.405,.775,1.153,2.074,1.84,3.463,1.84h41.475c1.498,0,2.877-.795,3.622-2.094,1.881-3.281,5.325-9.252,5.415-9.151,.123,.139-60.342,0-60.342,0Z" style="fill:#BA68C8;"></path><g><circle cx="209.9" cy="137.223" r="20.147" style="fill:#e0e0e0;"></circle><path d="M198.268,151.199c.386-.832,4.024-7.205,12.137-7.206,8.999,0,12.259,6.395,12.259,6.395,0,0-5.08,4.564-11.954,4.916-6.664,.342-12.442-4.106-12.442-4.106Z" style="fill:#f5f5f5;"></path><circle cx="210.258" cy="133.962" r="7.997" style="fill:#f5f5f5;"></circle></g></g><g><g><path d="M187.642,433.02c-1.82-11.54-4.621-27.74-8.889-45-5.41-21.774-12.173-45.305-17.713-63.74-5.861-19.423-10.305-33.155-10.305-33.155l47.792-3.005s19.564,96.517,24.154,133.78c.526,3.647,.488,7.302,0,10.964l-35.039,.156Z" style="fill:#BA68C8;"></path><path d="M187.642,433.02c-1.82-11.54-4.621-27.74-8.889-45-5.41-21.774-12.173-45.305-17.713-63.74-5.861-19.423-10.305-33.155-10.305-33.155l47.792-3.005s19.564,96.517,24.154,133.78c.526,3.647,.488,7.302,0,10.964l-35.039,.156Z" style="isolation:isolate; opacity:.2;"></path><path d="M166.437,316.71l-4.471,9.639c4.994,18.435,10.781,38.682,16.463,60.367,2.119-21.368-1.25-57.319-11.991-70.006Z" style="isolation:isolate; opacity:.2;"></path><path d="M161.829,430.538c5.749-35.651,10.917-140.806,10.917-140.806l-46.922,2.976s4.815,90.537,.66,134.085l-.66,6.072h35.689l.316-2.327Z" style="fill:#BA68C8;"></path><path d="M161.829,430.538c5.749-35.651,10.917-140.806,10.917-140.806l-46.922,2.976s4.815,90.537,.66,134.085l-.66,6.072h35.689l.316-2.327Z" style="isolation:isolate; opacity:.2;"></path><path d="M172.039,302.217c0,1.156-.937,2.092-2.092,2.092s-2.092-.937-2.092-2.092,.937-2.092,2.092-2.092,2.092,.937,2.092,2.092Z" style="isolation:isolate; opacity:.2;"></path></g><path d="M128.892,318.65c-.275,0-.499-.223-.5-.498,0-.276,.222-.501,.498-.502,4.566-.019,9.011-1.906,12.194-5.18s4.946-7.769,4.836-12.334c-.006-.275,.212-.505,.488-.512,.288-.015,.505,.212,.512,.488,.116,4.832-1.75,9.59-5.119,13.055-3.369,3.465-8.073,5.463-12.907,5.482h-.002Z" style="isolation:isolate; opacity:.2;"></path><path d="M169.946,320.313c-.243,0-.456-.177-.494-.424-.042-.273,.145-.528,.418-.57,1.336-.206,3.494-.567,4.217-.756,.292-1.615,.084-11.994-.124-18.422-.009-.276,.208-.508,.483-.517,.234-.017,.507,.207,.516,.483,.615,18.954,.078,19.169-.314,19.325-.625,.25-3.963,.772-4.626,.874-.026,.004-.051,.006-.077,.006Z" style="isolation:isolate; opacity:.2;"></path><path d="M190.972,301.056c-.104,.62,.086,1.341,.197,1.946,.237,1.291,.585,2.565,1.03,3.799,1.109,3.077,2.886,6.125,5.724,7.895,1.826,1.138,3.954,1.575,6.088,1.436,.479-.031,.483-.781,0-.75-3.615,.236-6.726-1.405-8.81-4.327-1.632-2.288-2.641-5.012-3.21-7.751-.098-.471-.185-.945-.242-1.423-.017-.147-.03-.294-.041-.442-.005-.061,.014-.341-.012-.185,.079-.472-.643-.675-.723-.199h0Z" style="isolation:isolate; opacity:.2;"></path><g><path d="M198.891,210.244l10.245,18.252,22.609-28.402,10.712,3.994s-27.859,48.627-34.867,49.451c-7.008,.824-24.501-31.402-24.501-31.402l15.802-11.892Z" style="fill:#8e4b4c;"></path><path d="M188.873,185.925c7.361,10.902,19.514,31.607,19.514,31.607l-27.904,15.96s-18.024-29.709-17.124-41.409c.987-12.673,17.937-13.343,25.514-6.157Z" style="fill:#263238;"></path><path d="M129.943,182.894c1.727-.276,3.498-.523,5.255-.74,9.24-1.19,18.541-1.849,27.856-1.974,1.152,.01,2.284,.053,3.397,.131,5.26,.323,10.496,.968,15.677,1.931,0,0,10.576,48.632,19.565,113.33-29.279,4.497-58.138,5.586-81.021,1.608-.581-4.979,3.886-24.213,2.87-43.519-.435-8.245-1.132-17.332-2.294-26.84-1.594-13.646-5.073-27.3-8.678-40.558,0,0,8.591-1.988,17.373-3.367Z" style="fill:#263238;"></path></g><polygon points="129.224 234.888 130.641 234.658 126.695 212.909 137.991 249.689 131.859 251.751 129.224 234.888" style="isolation:isolate; opacity:.2;"></polygon><g><g><g><path d="M220.524,268.056c-19.601,0-37.161-13.29-41.329-32.736-2.344-10.931-.16-22.132,6.15-31.54,6.247-9.314,15.805-15.755,26.913-18.137l49.198-10.547,3.773,17.6-49.198,10.547c-6.517,1.397-12.106,5.148-15.738,10.563-3.568,5.321-4.812,11.621-3.5,17.74,2.733,12.746,15.813,20.792,29.149,17.93l49.198-10.547,3.773,17.6-49.198,10.548c-3.084,.661-6.164,.979-9.193,.979Z" style="fill:#BA68C8;"></path><rect x="248.532" y="240.391" width="28.778" height="19.398" transform="translate(-46.584 60.671) rotate(-12.1)" style="fill:#fff; opacity:.7;"></rect><g style="opacity:.3;"><path d="M278.925,256.53l-49.198,10.547c-23.814,5.105-47.238-9.632-52.216-32.852-4.978-23.221,10.346-46.265,34.16-51.371l49.198-10.547,4.371,20.391-49.198,10.547c-12.57,2.695-20.708,14.632-18.141,26.608,2.568,11.977,14.884,19.529,27.454,16.834l49.198-10.547,4.371,20.391Z"></path></g></g><g><path d="M218.34,257.868c-19.601,0-37.161-13.29-41.33-32.736-4.812-22.451,10.02-44.736,33.064-49.676l49.197-10.547,3.773,17.601-49.197,10.547c-13.34,2.86-21.97,15.557-19.238,28.303s15.808,20.792,29.149,17.93l49.198-10.547,3.773,17.6-49.198,10.547c-3.084,.661-6.164,.979-9.193,.979Z" style="fill:#BA68C8;"></path><rect x="246.38" y="231.498" width="28.777" height="18.06" transform="translate(-44.627 60.007) rotate(-12.1)" style="fill:#fff; opacity:.7;"></rect><rect x="233.782" y="167.606" width="28.777" height="28.428" transform="translate(-32.6 56.062) rotate(-12.1)" style="fill:#fff; opacity:.7;"></rect></g></g><g><path d="M232.949,198.139s1.334-9.57,3.532-11.074c2.198-1.505,2.637,2.271,2.637,2.271,0,0-.228-4.184,1.535-4.521,2.117-.405,2.559,3.553,2.559,3.553,0,0-.047-3.424,1.542-3.619,1.648-.202,2.465,4.23,2.465,4.23,0,0,.423-2.417,1.604-1.928,1.181,.49,3.097,9.861,1.794,12.932-1.304,3.07-13.424,5.165-16.155,4.992-.784-.05-2.104-.369-3.767-3.57-.348-.671-.128-1.51,.511-1.913l1.698-1.069,.043-.284Z" style="fill:#8e4b4c;"></path><path d="M239.318,189.312c0,.006,.001,.011,.001,.018l.049,7.313c0,.098-.089,.181-.2,.184-.111,.003-.204-.077-.203-.172l-.049-7.313c0-.098,.089-.181,.2-.184,.105-.003,.191,.065,.202,.154Z" style="opacity:.2;"></path><path d="M243.437,188.55v.005l.606,7.021c.008,.098-.075,.185-.185,.195-.112,.01-.188-.048-.217-.158l-.606-7.021c-.008-.098,.075-.185,.185-.196,.109-.01,.205,.059,.216,.154Z" style="opacity:.2;"></path><path d="M247.448,189.194l.599,5.204c.011,.098-.069,.187-.18,.199-.11,.013-.209-.056-.221-.153l-.599-5.204c-.011-.098,.07-.187,.18-.199,.11-.013,.209,.056,.221,.153Z" style="opacity:.2;"></path></g></g><path d="M134.528,182.248c5.8-6.824,2.908-22.685,.303-31.144l21.859,13.521c-.305,1.053-.536,2.126-.693,3.211-.352,1.949-.195,3.957,.454,5.828,.602,1.533,3.47,6.516,3.47,6.516,0,0,5.096,9.388-7.103,10.857-12.086,.904-18.29-8.788-18.29-8.788Z" style="fill:#8e4b4c;"></path><path d="M139.689,159.353c.484,10.284,11.396,13.542,16.773,14.327-.649-1.872-.805-3.879-.454-5.828l-16.319-8.499Z" style="isolation:isolate; opacity:.2;"></path><path d="M153.895,118.775c10.016-2.076,4.79,6.01,15.822,7.461,.29,6.706-7.33,14.269-10.234,10.161-3.193-4.515-13.921-15.982-5.589-17.622Z" style="fill:#263238;"></path><path d="M130.326,144.091c4.295,11.55,6.478,18.15,14.419,22.32,11.945,6.272,25-3.323,24.345-15.965-.589-11.379-7.514-28.355-20.786-29.407-13.075-1.036-22.274,11.502-17.978,23.052Z" style="fill:#8e4b4c;"></path><path d="M147.079,142c.363,1.204,1.314,1.979,2.125,1.731,.809-.248,1.172-1.426,.808-2.631-.363-1.204-1.314-1.979-2.124-1.731-.81,.248-1.172,1.426-.809,2.631Z" style="fill:#263238;"></path><path d="M159.422,139.27c.363,1.205,1.314,1.98,2.124,1.732,.81-.248,1.172-1.426,.809-2.631-.363-1.204-1.314-1.98-2.124-1.731-.81,.248-1.172,1.426-.809,2.631Z" style="fill:#263238;"></path><path d="M156.784,139.484s5.733,4.822,7.727,6.886c-1.27,2.026-4.456,2.209-4.456,2.209l-3.271-9.094Z" style="fill:#703131;"></path><path d="M143.96,137.57c.21,.019,.426-.07,.559-.252,1.582-2.16,3.81-2.126,3.833-2.126,.334,.008,.618-.248,.634-.572,.016-.325-.243-.595-.575-.605-.118-.004-2.91-.047-4.872,2.634-.196,.267-.135,.634,.135,.819,.088,.06,.186,.093,.286,.102Z" style="fill:#263238;"></path><path d="M164.78,132.305c.101-.055,.188-.138,.246-.245,.157-.29,.048-.648-.245-.798-2.94-1.506-5.376-.171-5.493-.125-.291,.162-.399,.523-.239,.807,.159,.283,.522,.383,.813,.226,.099-.06,1.989-1.065,4.349,.144,.185,.095,.398,.084,.57-.008Z" style="fill:#263238;"></path><g><path d="M160.259,152.737c-.814,1.492-1.518,3.04-2.108,4.634-.292-.057-.592-.107-.881-.178-3.982-.823-5.564-2.514-6.09-4.152-.243-.805-.294-1.657-.148-2.486,.071-.469,.207-.926,.404-1.357,1.852,1.699,5.495,2.752,7.471,3.231,.861,.167,1.351,.308,1.351,.308Z" style="fill:#263238;"></path><path d="M158.915,152.429l-.66,1.351c-3.74-.782-6.268-1.824-7.215-3.224,.071-.469,.207-.926,.404-1.357,1.864,1.716,5.495,2.752,7.471,3.23Z" style="fill:#fff;"></path><path d="M157.287,157.28c-3.982-.823-5.564-2.514-6.09-4.152,1.507,.34,2.943,.944,4.24,1.785,.848,.577,1.495,1.405,1.85,2.367Z" style="fill:#d7504d;"></path></g><path d="M165.851,109.48c-8.129-.784-10.873,.103-17.574,2.769,0,0,1.676-3.44,.994-7.461-15.489,13.34-22.224,7.084-29.743,14.719-4.805,4.877-.093,11.04-.093,11.04,0,0-12.492,8.111,6.34,22.152,.597,1.543,.756,3.031,.145,4.003-1.13,1.795-3.204,2.721-5.157,3.547,3.194,.908,6.698,.681,9.748-.633-.56,1.977-1.626,3.808-3.067,5.272,4.232,.275,8.543-1.78,10.995-5.24l-3.116-8.497c.723-.077,1.494-.078,2.337,.058,.565-2.867,.727-5.798,.479-8.71-.417-2.277-1.134-4.488-2.134-6.576,0,0,6.953-4.108,7.113-9.058,0,0,12.426,3.658,19.06-1.931,6.634-5.589,.279-12.989,3.675-15.457Z" style="fill:#263238;"></path><g><path d="M128.497,155.32c1.883,2.744,4.904,4.354,7.659,4.801,4.144,.673,4.335-3.567,2.873-7.174-1.315-3.246-3.545-7.015-7.556-6.046-3.951,.956-5.129,5.281-2.976,8.418Z" style="fill:#8e4b4c;"></path><path d="M136.884,153.382c-.097,0-.188-.056-.229-.151-.407-.939-1.063-1.759-1.9-2.372-.544-.399-1.386-.862-2.353-.813-.862,.047-1.653,.584-1.879,1.278-.043,.131-.184,.202-.315,.16-.131-.043-.203-.184-.16-.315,.293-.896,1.25-1.564,2.328-1.622,1.11-.066,2.065,.462,2.675,.909,.908,.665,1.622,1.556,2.063,2.577,.055,.126-.003,.273-.13,.329-.032,.014-.066,.021-.099,.021Z" style="opacity:.2;"></path></g><g><path d="M104.038,225.051s10.729,42.013,17.909,46.563c7.18,4.55,58.536-17.337,58.536-17.337l-6.16-9.982-41.693,6.192c-1.335-1.453-6.523-34.133-6.523-34.133l-22.07,8.699Z" style="fill:#8e4b4c;"></path><path d="M125.251,203.682c2.197,15.015,5.39,30.976,5.39,30.976l-28.414,4.605s-3.651-47.435,10.625-53.002c4.897,0,10.008,1.063,12.399,17.421Z" style="fill:#263238;"></path><path d="M192.581,242.187l.757-1.467c.877-2.443-1.422-4.095-1.422-4.095,.127-2.079-1.819-4.321-2.606-4.848-.786-.527-9.055,6.016-9.055,6.016l-1.979-5.098c-.329,.119-3.629,3.791-5.098,6.653l-4.403,6.97c1.227,5.737,4.053,7.37,7.157,8.689,.524,.223,7.141-1.237,10.319-2.101,2.905-.79,7.351-3.068,8.335-6.926,.983-3.858-2.004-3.793-2.004-3.793Z" style="fill:#8e4b4c;"></path><polygon points="132.63 250.485 128.897 259.916 136.059 249.976 132.63 250.485" style="isolation:isolate; opacity:.2;"></polygon></g></g></g><g id="freepik--Emojis--inject-45"><g><path d="M458.043,126.898c-.33-.95-.724-1.878-1.179-2.775h0c-6.541-13.461-22.755-19.071-36.216-12.531-13.461,6.541-19.071,22.755-12.531,36.217,6.541,13.461,22.755,19.071,36.216,12.531,9.398-4.566,15.334-14.13,15.255-24.578-.009-3.021-.531-6.018-1.545-8.863Z" style="fill:#BA68C8;"></path><path d="M459.588,135.741c-.011-3.014-.533-6.004-1.545-8.843-.33-.95-.724-1.878-1.179-2.775h0c-6.541-13.461-22.755-19.071-36.216-12.531-13.461,6.541-19.071,22.755-12.531,36.217,6.541,13.461,22.755,19.071,36.216,12.531,9.398-4.566,15.334-14.13,15.255-24.578v-.02Z" style="fill:#fff; isolation:isolate; opacity:.5;"></path><path d="M450.267,127.752c-1.83-2.47-4.808-1.199-6.221,.966-1.758-1.891-4.92-2.622-6.292,.122-2.328,4.635,3.608,8.223,6.373,9.585l.793,.386,.711-.518c2.5-1.819,7.725-6.373,4.635-10.541Z" style="fill:#BA68C8;"></path><path d="M427.458,128.941c-1.484-2.694-4.604-1.84-6.292,.112-1.494-2.104-4.523-3.263-6.261-.732-2.927,4.279,2.46,8.64,5.031,10.368l.722,.488,.783-.417c2.714-1.464,8.518-5.275,6.017-9.819Z" style="fill:#BA68C8;"></path><path d="M432.901,147.197c-3.437-.674-4.874-4.827-5.153-7.114-.01-.3,.225-.55,.525-.56,.263-.008,.494,.173,.548,.43,.004,.067,.84,6.358,5.144,6.282,4.304-.076,4.658-6.838,4.66-6.912,.013-.296,.263-.525,.558-.513h.005c.292,.009,.522,.253,.513,.545v.019c.016,.321-.412,7.852-5.715,7.939-.365,0-.73-.039-1.086-.118Z" style="fill:#263238;"></path><path d="M450.176,139.512c-.529,.539-1.159,.793-1.403,.549-.244-.244,0-.874,.508-1.423s1.149-.783,1.403-.549c.254,.234,.02,.884-.508,1.423Z" style="fill:#BA68C8;"></path><path d="M452.412,139.776c-.529,.549-1.159,.793-1.403,.549-.244-.244,0-.874,.508-1.413,.508-.539,1.149-.793,1.392-.549,.244,.244,.041,.874-.498,1.413Z" style="fill:#BA68C8;"></path><path d="M416.094,139.878c.579,.488,1.23,.661,1.443,.396s-.071-.864-.65-1.352-1.23-.661-1.453-.396c-.224,.264,.071,.874,.661,1.352Z" style="fill:#BA68C8;"></path><path d="M413.889,140.386c.579,.488,1.23,.661,1.453,.396s-.071-.874-.661-1.352c-.589-.478-1.23-.661-1.443-.396-.213,.264,.071,.864,.651,1.352Z" style="fill:#BA68C8;"></path></g><g><path d="M110.364,274.199c-.352-1.086-.779-2.148-1.277-3.176h0c-7.36-15.389-25.802-21.897-41.191-14.537-6.19,2.961-11.218,7.898-14.291,14.034-.585,1.189-1.098,2.412-1.534,3.662-5.72,16.078,2.677,33.748,18.755,39.468,16.078,5.72,33.748-2.677,39.468-18.755,1.213-3.41,1.818-7.007,1.786-10.627,.004-3.43-.576-6.835-1.716-10.069Z" style="fill:#BA68C8;"></path><path d="M110.364,274.199c-.352-1.086-.779-2.148-1.277-3.176h0c-7.36-15.389-25.802-21.897-41.191-14.537-6.19,2.961-11.218,7.898-14.291,14.034-.585,1.189-1.098,2.412-1.534,3.662-5.72,16.078,2.677,33.748,18.755,39.468,16.078,5.72,33.748-2.677,39.468-18.755,1.213-3.41,1.818-7.007,1.786-10.627,.004-3.43-.576-6.835-1.716-10.069Z" style="fill:#fff; isolation:isolate; opacity:.3;"></path><path d="M84.487,277.073s2.029-4.712,5.614-4.949c4.627-.275,6.4,5.05,6.4,5.05l-1.806,.067s-1.648-4.136-4.43-3.801c-3.463,.406-4.778,4.037-4.778,4.037l-1-.404Z" style="fill:#263238;"></path><path d="M76.348,277.072s-2.281-4.608-5.896-4.629c-4.636-.015-6.098,5.391-6.098,5.391l1.807,.051s1.417-4.225,4.205-4.042c3.471,.214,4.993,3.769,4.993,3.769l.989-.54Z" style="fill:#263238;"></path><path d="M70.012,282.368s12.932,1.668,22.334-.595c0,0-.514,12.79-11.555,12.054-11.041-.735-10.778-11.459-10.778-11.459Z" style="fill:#263238;"></path><path d="M70.34,282.901s12.319,1.647,21.28-.6c0,0-.221,1.486-.586,1.771-.499,.226-1.021,.397-1.556,.51-.062,.191-.178,.361-.334,.487-.868,.542-4.142,.443-4.142,.443,0,0-.041,.26-.152,.341-.732,.548-2.87,.736-3.63,.239-.194-.226-.346-.485-.448-.765,0,0-.134,.687-.304,.811-.555,.43-2.196,.231-2.794-.138-.196-.182-.347-.406-.442-.656,0,0-2.181,.271-2.809-.035-.225-.196-.416-.427-.566-.684,0,0-2.431,.162-3.027-.309-.305-.235-.489-1.415-.489-1.415Z" style="fill:#fff;"></path><path d="M81.296,293.352c2.249,.119,6.802-1.562,7.169-3.097,.368-1.535-1.414-2.331-3.306-1.864-1.141,.299-2.212,.817-3.154,1.526,0,0-3.367-1.732-5.957-.984-1.626,.487-1.866,4.04,5.249,4.419Z" style="fill:#BA68C8;"></path><path d="M65.723,283.04c-.265,1.768-2.728,2.846-5.505,2.421s-4.793-2.226-4.54-3.937c.253-1.712,2.739-2.844,5.492-2.365s4.826,2.126,4.552,3.881Z" style="fill:#fff; isolation:isolate; opacity:.3;"></path><path d="M106.797,279.757c.546,1.703-1.184,3.76-3.862,4.61-2.678,.85-5.283,.128-5.814-1.518-.532-1.646,1.196-3.763,3.876-4.553,2.68-.791,5.268-.232,5.8,1.462Z" style="fill:#fff; isolation:isolate; opacity:.3;"></path></g><g><path d="M271.346,312.147c-.208-.615-.46-1.213-.755-1.792h0c-4.22-8.697-14.692-12.326-23.39-8.106-3.495,1.696-6.326,4.506-8.048,7.988-1.204,2.45-1.822,5.146-1.805,7.876-.108,9.667,7.641,17.59,17.308,17.698,9.667,.108,17.59-7.641,17.698-17.308,.002-.211,0-.422-.004-.633-.008-1.951-.348-3.886-1.004-5.723Z" style="fill:#BA68C8;"></path><path d="M271.346,312.147c-.208-.615-.46-1.213-.755-1.792h0c-4.22-8.697-14.692-12.326-23.39-8.106-3.495,1.696-6.326,4.506-8.048,7.988-1.204,2.45-1.822,5.146-1.805,7.876-.108,9.667,7.641,17.59,17.308,17.698,9.667,.108,17.59-7.641,17.698-17.308,.002-.211,0-.422-.004-.633-.008-1.951-.348-3.886-1.004-5.723Z" style="fill:#fff; isolation:isolate; opacity:.6;"></path><path d="M254.695,324.521c-2.907,0-5.552-1.47-6.563-3.656-.113-.247-.008-.538,.236-.656,.241-.118,.532-.018,.65,.222l.006,.014c.873,1.851,3.163,3.091,5.697,3.091s4.824-1.24,5.697-3.091c.115-.246,.408-.352,.654-.237h.002c.244,.119,.349,.41,.236,.657-1.063,2.186-3.708,3.656-6.616,3.656Z" style="fill:#263238;"></path><path d="M261.258,313.958c.859,0,1.555,.696,1.555,1.555s-.696,1.556-1.555,1.556-1.555-.696-1.555-1.556,.696-1.555,1.555-1.555Z" style="fill:#263238;"></path><path d="M249.687,315.514c0,.859-.696,1.556-1.555,1.556s-1.555-.696-1.555-1.556,.696-1.555,1.555-1.555h0c.857,.004,1.552,.698,1.555,1.555Z" style="fill:#263238;"></path></g></g></svg>
