<svg xmlns="http://www.w3.org/2000/svg" viewBox="0 0 500 500"><g id="freepik--Shadow--inject-265"><ellipse id="freepik--shadow--inject-265" cx="250" cy="416.23" rx="65.89" ry="38.04" style="fill:#e0e0e0"></ellipse></g><g id="freepik--Plant--inject-265"><g id="freepik--strelitzia-plant--inject-265"><ellipse cx="249.49" cy="413.79" rx="29.12" ry="16.81" style="fill:#BA68C8"></ellipse><ellipse cx="249.49" cy="413.79" rx="29.12" ry="16.81" style="opacity:0.30000000000000004"></ellipse><path d="M315.88,341.18c-.07-10.08-4.27-24.15-10.35-33.2h0c-.34-.55-.72-1.09-1.12-1.64a39.18,39.18,0,0,0-10.4-9.43c-.71-.46-1.44-.91-2.2-1.35-23.08-13.32-60.5-13.32-83.58,0h0c-.75.43-1.48.88-2.19,1.33a39.24,39.24,0,0,0-10.4,9.45c-.4.54-.78,1.08-1.12,1.63h0c-6.08,9-10.27,23.12-10.35,33.2,0,.24,0,.49,0,.73a27.32,27.32,0,0,0,.15,2.79c1.1,10.05,12.39,54.44,33.36,70.35h0a32.05,32.05,0,0,0,4.26,2.91c15.23,8.8,39.93,8.8,55.16,0a31.29,31.29,0,0,0,4.25-2.91h0c21-15.91,33.3-60.3,34.39-70.35a27.32,27.32,0,0,0,.15-2.79C315.88,341.67,315.88,341.42,315.88,341.18Z" style="fill:#BA68C8"></path><path d="M315.88,341.18c-.07-10.08-4.27-24.15-10.35-33.2h0c-.34-.55-.72-1.09-1.12-1.64a39.18,39.18,0,0,0-10.4-9.43c-.71-.46-1.44-.91-2.2-1.35-23.08-13.32-60.5-13.32-83.58,0h0c-.75.43-1.48.88-2.19,1.33a39.24,39.24,0,0,0-10.4,9.45c-.4.54-.78,1.08-1.12,1.63h0c-6.08,9-10.27,23.12-10.35,33.2,0,.24,0,.49,0,.73a27.32,27.32,0,0,0,.15,2.79c1.1,10.05,12.39,54.44,33.36,70.35h0a32.05,32.05,0,0,0,4.26,2.91c15.23,8.8,39.93,8.8,55.16,0a31.29,31.29,0,0,0,4.25-2.91h0c21-15.91,33.3-60.3,34.39-70.35a27.32,27.32,0,0,0,.15-2.79C315.88,341.67,315.88,341.42,315.88,341.18Z" style="fill:#fff;opacity:0.2"></path><path d="M230.35,408.31c-30.09-15.34-40.48-61.48-34.81-82.61l-.19-19c-.3.41-.6.83-.86,1.25h0c-6.08,9-10.27,23.12-10.35,33.2,0,.24,0,.49,0,.73a27.32,27.32,0,0,0,.15,2.79c1.1,10.05,12.39,54.44,33.36,70.35h0a32.05,32.05,0,0,0,4.26,2.91c15.23,8.8,39.93,8.8,55.16,0a31.29,31.29,0,0,0,4.25-2.91h0a51.55,51.55,0,0,0,9.4-9.58C290.55,405.58,260.34,423.61,230.35,408.31Z" style="opacity:0.1"></path><path d="M315.84,342.82c0,.65,0,1.29-.11,1.89-1.1,10-13.42,54.43-34.4,70.34h0a31.93,31.93,0,0,1-4.25,2.91c-15.23,8.8-39.93,8.8-55.17,0a31.8,31.8,0,0,1-4.24-2.91h0c-21-15.91-32.28-60.3-33.37-70.34-.07-.6-.11-1.24-.12-1.89.55,9.28,7,18.47,19.25,25.56,25.73,14.85,67.45,14.85,93.18,0C308.86,361.29,315.29,352.1,315.84,342.82Z" style="opacity:0.1"></path><ellipse cx="250" cy="319.69" rx="59.1" ry="34.12" style="fill:#BA68C8"></ellipse><ellipse cx="250" cy="319.69" rx="59.1" ry="34.12" style="fill:#fff;opacity:0.4"></ellipse><ellipse cx="250" cy="318.47" rx="49.77" ry="26.52" style="fill:#BA68C8"></ellipse><path d="M285.19,310.7c-19.43-10.36-50.94-10.36-70.38,0-7.08,3.78-11.57,8.4-13.49,13.26,1.92,4.86,6.41,9.49,13.49,13.27,19.43,10.35,50.95,10.35,70.38,0,7.08-3.78,11.57-8.41,13.49-13.27C296.76,319.1,292.27,314.48,285.19,310.7Z" style="fill:#fafafa"></path><path d="M274.82,231.68q-.39,5.9-.45,11.72c0,1.65.05,3.48,1.19,4.68,1.93,2,5.3.85,7.73-.53a29.07,29.07,0,0,0,9.41-7.88c3.39-4.31,8.19-7.9,12.2-11.64a102.85,102.85,0,0,0,8.68-8.79c4.37-5.17,7.68-11.15,10.95-17.07,6.6-11.95,12.65-23.66,16.3-36.89a48,48,0,0,1-8,1.48c3.37-3.12,6.84-6,10.41-8.89a1.89,1.89,0,0,0,.61-.65,2.05,2.05,0,0,0,.16-.78,72.07,72.07,0,0,0-2.28-23c-.69-2.58-1.52-5.22-1.16-7.87-3.06,2.5-7,4.07-10.5,5.76a46.61,46.61,0,0,0-10.19,6.11,61.43,61.43,0,0,0-9.31,9.35,223.79,223.79,0,0,0-18.37,24.66C281.1,189.26,276.25,210.64,274.82,231.68Z" style="fill:#263238"></path><path d="M218.87,233.05c.27,3.93.41,7.85.46,11.73,0,1.65-.06,3.47-1.2,4.67-1.92,2-5.3.86-7.72-.53A29.07,29.07,0,0,1,201,241c-3.39-4.31-8.19-7.9-12.2-11.64a104.34,104.34,0,0,1-8.69-8.78c-4.36-5.18-7.67-11.15-11-17.08-6.6-11.94-12.64-23.66-16.29-36.88a47.8,47.8,0,0,0,8,1.47c-3.38-3.11-6.84-6-10.42-8.88a2.13,2.13,0,0,1-.61-.66,1.87,1.87,0,0,1-.15-.78,71.81,71.81,0,0,1,2.27-23c.69-2.58,1.53-5.22,1.17-7.86,3.06,2.49,7,4.07,10.5,5.75a47.26,47.26,0,0,1,10.19,6.11,61,61,0,0,1,9.3,9.36,225.16,225.16,0,0,1,18.38,24.66C212.59,190.63,217.45,212,218.87,233.05Z" style="fill:#263238"></path><path d="M217,30.21c3.51,4.58,3.73,4.89,9.86,8.37,5.91,3.34,11.2,9.56,15.46,14.77A54.65,54.65,0,0,1,253.09,73.2c2.75,10,1.78,20.89,5.87,30.56a90.83,90.83,0,0,1,6.35,28.66c1.54,24-8.63,48.34-20.94,68.33-4.84-11.87-16-20-22.36-31.11-5.75-10.14-7.25-22.15-8.75-33.53-1.3-9.86-.25-19.81-1.73-29.68-1.39-9.33-5.18-18.21-6.15-27.59-.92-9,.84-18,4.06-26.41C212.24,45.13,217.32,38.35,217,30.21Z" style="fill:#37474f"></path><path d="M210.23,50.5c.14-.32.28-.64.43-1,.32,1.44.68,2.88,1.12,4.3,2.11,6.73,6.07,12.22,10.6,17.53,3.62,4.27,8,8.64,10.35,13.82a52.89,52.89,0,0,1,3.61-15.94c1.33-3.59,2.87-7.11,4.09-10.75q.85-2.58,1.49-5.22c0-.12.05-.23.07-.34l.33.4.41.52c-.38,1.72-.9,3.42-1.42,5-1.12,3.5-2.45,6.93-3.73,10.38a63.36,63.36,0,0,0-3.21,11.2,68,68,0,0,0-.78,6.85h0a.34.34,0,0,1,0,.33c-.09,1.48-.17,3-.21,4.44,0,.16-.17.22-.2,0a32.86,32.86,0,0,1-.45-5.29,79.25,79.25,0,0,0-6.28-9.15c-4.13-5.11-8.85-9.84-12-15.64A43,43,0,0,1,210.23,50.5Zm18,43.82a60.32,60.32,0,0,1,6.16,9.26c.16.27.38,0,.33-.23l-.06-.23c.09.11.27.13.31-.08.4-2,.51-4.08.76-6.13q.41-3.43,1.09-6.83a81.09,81.09,0,0,1,3.54-12.3c1.45-3.9,3.32-7.6,5-11.41a45.62,45.62,0,0,0,2.15-5.73c-.19-.32-.39-.63-.59-1-.16.58-.34,1.15-.55,1.72-.67,1.86-1.5,3.68-2.32,5.48-1.7,3.74-3.49,7.43-4.89,11.29a82.68,82.68,0,0,0-3.37,12.16c-.8,4.06-1.58,8.39-1.19,12.54a22.78,22.78,0,0,0-4.35-7.62A59.75,59.75,0,0,0,223.35,88C218,83.19,212.2,78.78,207.87,73a33.49,33.49,0,0,1-2.49-3.83c0,.31-.06.61-.08.92C210.57,79.75,221,86,228.25,94.32Zm14.13,46.49c-1.56,3.26-3,6.92-2.95,10.59-.3-.66-.64-1.29-1-1.91a41.7,41.7,0,0,0-2.67-4.31,79.17,79.17,0,0,0-6.27-7.65c-4.55-5-9.46-9.71-13.61-15.08a52.33,52.33,0,0,1-3.53-5.13l0,1.33c5.42,9.54,14.58,16.62,21.21,25.34q1.68,2.2,3.12,4.55c1,1.65,1.78,3.45,2.8,5.1.25.39.65.1.57-.28,0-.09-.06-.18-.08-.28.41-2,.67-4,1.22-5.93a34.65,34.65,0,0,1,2.14-5.59,97.82,97.82,0,0,1,5.93-10.08c4.1-6.45,7.8-13.21,9.29-20.79a41.74,41.74,0,0,0,.75-5.9c-.14-.34-.26-.69-.4-1l-.15-.37a47.24,47.24,0,0,1-4.61,17.08C250.87,127.61,245.77,133.71,242.38,140.81Zm-30-70.6c3.78,5.84,8.82,10.52,13.65,15.45q2.08,2.11,4,4.41c1.36,1.67,2.43,3.54,3.75,5.23.15.2.26-.13.23-.25-.76-3.14-3.31-6-5.43-8.29-2.26-2.49-4.72-4.79-7.1-7.18a63.68,63.68,0,0,1-11.88-16.06,33.9,33.9,0,0,1-2.08-5.23c-.1.37-.21.74-.31,1.12A44.71,44.71,0,0,0,212.37,70.21Zm16.77-4a22.18,22.18,0,0,0,.23-3.56c.1-1.21.27-2.41.48-3.6.45-2.54,1.08-5,1.58-7.56a44.64,44.64,0,0,0,.86-8.93l-.53-.45c0,.75,0,1.5,0,2.25a48.52,48.52,0,0,1-1.3,7.85c-.51,2.22-1,4.44-1.42,6.68s-.92,5-.27,7.25C228.79,66.33,229.06,66.47,229.14,66.16ZM248.25,184.4c-2.16,3.89-4.3,8.16-4.94,12.6-.07.47.7,1.21.92.55a78.28,78.28,0,0,1,4.48-11.08,109.5,109.5,0,0,1,6.68-10.84c1.38-2,2.77-4,4.13-6,.52-1.48,1-3,1.47-4.46C256.77,171.56,252,177.65,248.25,184.4ZM224.71,42.8c0,1.79-.05,3.58-.08,5.37a31.72,31.72,0,0,0,.14,5.34c0,.11.11.12.15,0a21.39,21.39,0,0,0,.63-5.88c0-1.78.07-3.57,0-5.35,0-1.52-.09-3-.15-4.54l-.76-.44C224.7,39.14,224.75,41,224.71,42.8ZM239,184.49c1.18,1.66,1.9,3.64,3.32,5.1a.26.26,0,0,0,.46-.11c.42-1.49-.81-3.07-1.56-4.29a27.73,27.73,0,0,0-2.79-3.76,61,61,0,0,0-7.13-6.69c-4-3.26-8.06-6.35-11.69-10,.37.88.76,1.75,1.18,2.6l0,0c4.75,4.53,10.23,8.25,14.79,13A35.05,35.05,0,0,1,239,184.49Zm-17-132.81c.64,1,1.3,2,2,3a10.51,10.51,0,0,0,2,2.61c.29.23.58,0,.55-.33a6,6,0,0,0-1.37-2.43c-.63-.93-1.26-1.87-1.88-2.81-1.26-1.93-2.5-3.88-3.64-5.89s-2.16-3.87-3.09-5.88c-.29-.64-.56-1.29-.82-1.94-.13.4-.26.79-.41,1.18a51.45,51.45,0,0,0,3,6.38C219.52,47.64,220.76,49.68,222.06,51.68Zm-3.68,4.21a90.66,90.66,0,0,0,6.32,9.47,51.29,51.29,0,0,1,5.67,10.22,12.83,12.83,0,0,0,.56,3.33c.09.3.55.42.55,0,0-1.45-.17-2.89-.13-4.33a30.76,30.76,0,0,1,.55-4.89c.58-3.11,1.54-6.12,2.38-9.17a51.25,51.25,0,0,0,2.17-14l-.54-.58a44,44,0,0,1-.46,5.5A72.51,72.51,0,0,1,233,61a71,71,0,0,0-2.23,9c-.16,1-.3,2-.38,3.08a24.58,24.58,0,0,0-3.68-6.79c-2.09-3-4.38-5.92-6.33-9a61.56,61.56,0,0,1-6.57-14.39l-.39.83A58.28,58.28,0,0,0,218.38,55.89Zm35.7,27.55a101.15,101.15,0,0,1-4.2,12.33c-3.33,8-8.11,15.37-10.87,23.62a38.71,38.71,0,0,0-2,8.48,56.54,56.54,0,0,0-3.42-5.36,55.62,55.62,0,0,0-6.26-7.52c-4.26-4.27-9.44-7.39-14.08-11.21-.95-.78-1.86-1.62-2.75-2.48.12.49.22,1,.33,1.47,3.63,3.54,8.09,6.34,12,9.52a50.33,50.33,0,0,1,8.22,8.6c2.18,2.87,3.95,6,5.89,9a19.05,19.05,0,0,0,.25,3.37c0,.27.59.64.63.18,0-.65.11-1.3.17-1.94l.1.15a.33.33,0,1,0,.58-.31c-.16-.44-.34-.86-.53-1.29a46.22,46.22,0,0,1,1.87-9.39,87,87,0,0,1,5.08-11.88c3.87-7.77,7.67-15.47,9.63-24,.08-.35.15-.7.23-1-.1-.85-.21-1.7-.32-2.55C254.47,82,254.29,82.7,254.08,83.44Zm-4.81-11.61c-1.45,3.35-3,6.67-4.44,10-3,6.77-5.72,13.71-7.07,21-.38,2.08-.66,4.18-.87,6.28a46,46,0,0,0-.39,7.42c0,.21.4.58.49.21a43.41,43.41,0,0,0,.66-5.81c.19-2.1.43-4.19.77-6.27a67.93,67.93,0,0,1,2.63-10.49c2.27-6.85,5.39-13.38,8.3-20,.76-1.74,1.57-3.5,2.3-5.29-.19-.49-.38-1-.58-1.47C250.48,68.93,249.9,70.39,249.27,71.83ZM230,112.44a58.61,58.61,0,0,1,6.51,8.75c.18.3.44,0,.36-.27-1.86-5.76-6.78-10.34-11.29-14.12-5-4.16-10.42-7.73-15.32-12-.63-.55-1.25-1.11-1.85-1.68.12.43.23.87.35,1.3C215.43,100.85,223.7,105.65,230,112.44ZM219.4,94.8a58.57,58.57,0,0,1,8.74,7.83c1.3,1.46,2.53,3,3.72,4.54A48.68,48.68,0,0,0,236,112.4c.27.28.53-.06.4-.36a26,26,0,0,0-3.34-5c-1.26-1.64-2.56-3.25-3.93-4.79a58.69,58.69,0,0,0-8.68-7.84c-3-2.26-6.21-4.36-9.28-6.58-1.76-1.27-3.42-2.63-5-4,.09.45.18.9.28,1.34C210.36,88.77,215.16,91.66,219.4,94.8ZM221,138.65c4.47,5.5,9.51,10.51,13.68,16.25a49.46,49.46,0,0,1,3.18,4.9c1,1.82,1.69,3.87,2.83,5.61.16.25.54.26.52-.1a11.31,11.31,0,0,0-1.6-4.45,44.78,44.78,0,0,0-2.6-4.44,80.66,80.66,0,0,0-6.63-8.46c-4.88-5.57-10.06-10.89-14-17.2-1.38-2.19-2.65-4.46-3.89-6.75l0,1.42c.65,1.29,1.32,2.58,2,3.84A71.55,71.55,0,0,0,221,138.65Zm37.74,17.43c-4.2,6.79-8.95,13.28-12.31,20.55a39.38,39.38,0,0,0-2.61,7.31c-1.95-5.83-7.07-10.41-11.5-14.39-5.19-4.66-10.24-9.28-14.16-15.1-1-1.56-2-3.18-2.91-4.83l.48,2.4a52.87,52.87,0,0,0,6.62,9.37c4.36,4.92,9.65,8.86,14.14,13.64a42.08,42.08,0,0,1,6.62,9.47.73.73,0,0,0,.5.35,26.75,26.75,0,0,0-.57,4.5c0,.25.42.73.51.3a71.33,71.33,0,0,1,9.4-21.89c4.17-6.73,8.56-13.3,11.54-20.69.18-.45.34-.9.51-1.36.09-.88.16-1.76.22-2.64A78.11,78.11,0,0,1,258.77,156.08Zm-2.25-28.9c-4.06,7.63-9.62,14.45-13.06,22.41a31.65,31.65,0,0,0-2.05,6.38,17.56,17.56,0,0,0-.49,6.2c0,.2.42.61.5.21.21-1,.18-2,.31-3a25.77,25.77,0,0,1,.64-3.24,42.13,42.13,0,0,1,2.18-6.16A85.29,85.29,0,0,1,251,138.59c4.64-7.22,9.37-14.72,11.41-23.16.06-.22.1-.45.15-.68-.15-.62-.32-1.23-.49-1.85-.13.72-.27,1.43-.45,2.15A55.93,55.93,0,0,1,256.52,127.18Zm1.78,20.54a101.23,101.23,0,0,1-5.83,9.83c-2.11,3.09-4.26,6.18-6.18,9.4a30.32,30.32,0,0,0-3.37,7.51.88.88,0,0,0,0-.15,46.58,46.58,0,0,0-6.1-8.22c-2.27-2.65-4.67-5.18-7.05-7.72A101.63,101.63,0,0,1,216.19,141c-1-1.74-2-3.51-3-5.28,0,.11,0,.23,0,.35.07.49.13,1,.2,1.47a73.15,73.15,0,0,0,6.85,11.5c4.29,5.75,9.49,10.73,14.24,16.08,1.3,1.46,2.57,3,3.78,4.5s2.37,3.39,3.61,5.05a.7.7,0,0,0,.84.28,15.53,15.53,0,0,0-.45,3.34c0,.41.67,1,.76.37,1.13-7.67,6.2-13.54,9.95-20,3.87-6.71,7.85-13.28,10.58-20.56.63-1.67,1.21-3.36,1.72-5.07l0-.6c0-.35-.06-.71-.09-1.07-.63,2.09-1.32,4.16-2.14,6.19A106,106,0,0,1,258.3,147.72Zm-2.63-50a75.31,75.31,0,0,1-3.22,11.51,66.51,66.51,0,0,1-5,10.63c-2,3.46-4.43,6.69-6,10.41a33.79,33.79,0,0,0-1.86,6,25.39,25.39,0,0,0-.68,5,31.46,31.46,0,0,0-5-8.68,93,93,0,0,0-7.64-8.73c-2.94-3-6-5.94-8.84-9a79.59,79.59,0,0,1-5.75-7.15q.11.78.18,1.56a63.25,63.25,0,0,0,4.57,5.67c2.71,3.08,5.62,6,8.48,8.9a92.39,92.39,0,0,1,8,9A72.81,72.81,0,0,1,239,143.14a.29.29,0,0,0,.14.15c.19.3.7.61.8.14.38-2,.34-4,.7-6a31.81,31.81,0,0,1,1.63-5.76c1.44-3.74,3.75-7,5.71-10.44A71.83,71.83,0,0,0,256,99.64c.23-1.18.44-2.36.62-3.55-.15-.74-.29-1.49-.41-2.25C256.1,95.14,255.92,96.42,255.67,97.7Zm6.91,27.44a76.91,76.91,0,0,1-4.95,11.51c-1.93,3.7-4.13,7.25-6.41,10.74s-4.72,6.87-6.65,10.55c-2.11,4-3.72,8.61-2.92,13.2,0,.26.46.59.49.14a31.34,31.34,0,0,1,3-11.52,90.21,90.21,0,0,1,6.38-10.42c4.56-6.89,9-14.11,11.43-22.08.47-1.55.88-3.13,1.22-4.72-.11-.69-.23-1.39-.36-2.08A40.28,40.28,0,0,1,262.58,125.14Z" style="fill:#455a64"></path><path d="M243,280c-.6-6.53-2.06-19.86-3.39-26.28q-4-19.17-9.5-38c-1-3.35-2-6.7-3.19-10a57,57,0,0,0-4.89-10c-.31-.5-1.28-.49-1,.26a352.77,352.77,0,0,1,11.32,37.65,285.71,285.71,0,0,1,7.06,37.81c3.83,34.66,4.83,54.7,5,56.43.14,1.43,0,3,.77,4.26a1.16,1.16,0,0,0,1.82.32c.5-.58.23-1.91.2-2.59C247.09,327.64,244.5,296.24,243,280Z"></path><path d="M292,195.21a34.62,34.62,0,0,0-5,8.3c-1.44,3-2.72,6-3.9,9.08q-3.58,9.32-6.9,18.75A246.91,246.91,0,0,0,266,269.91c-.67,3.8-6.07,40.52-7,55.86-.07,1.28-1.11,4.75,1.12,4.87,1.64.1,1.67-2.94,1.75-4.07,1.21-19.13,5.85-51,6.43-54.29,1.14-6.63,2.46-13.25,4.11-19.77,3.23-12.75,7.76-25.14,12.2-37.5,1.23-3.41,2.46-6.83,3.86-10.18,1.27-3,2.9-5.92,4.06-9C292.68,195.58,292.33,194.86,292,195.21Z"></path><path d="M166.65,125.25c16.48-6.54,36.76-1.89,44.08,9.25s6,17.49,14,24.79,12.3,21.34,7.31,37.6S221.28,229,221.7,240.4c0,0-10.34-45-14.3-59.45S194.39,135.1,166.65,125.25Z" style="fill:#263238"></path><path d="M166.46,125.24c5.55-.92,13.53,0,20.07,1.55s12.9,4.83,17,10.19c3.07,4,4.67,9,7.16,13.38,2.91,5.16,7,9.59,9.65,14.89,4.23,8.53,4.28,18.61,8.22,27.26,3.24,7.09,9.05,13.2,10,20.93,1,7.95-3.36,15.47-7.25,22.47s-6,12.52-4.51,23.15c-7.13-29.64-12.27-53.39-16.39-69.93S200,154.38,191.31,143.51,175,128.33,166.46,125.24Z" style="fill:#37474f"></path><path d="M197.65,153.45c-.39-.75-.8-1.47-1.2-2.19-.07-1.08-.1-2.16-.15-3.2-.1-2.47-.08-4.94-.19-7.42a41.3,41.3,0,0,0-.69-6.84,28.48,28.48,0,0,0-1.27-4.28l.95.49a36.44,36.44,0,0,1,2.09,10.08c.23,2.55.29,5.12.31,7.68,0,1.42,0,2.83.06,4.25C197.57,152.49,197.61,153,197.65,153.45ZM188.34,136a42.76,42.76,0,0,0-3.33-9.51l-.68-.15a46.21,46.21,0,0,1,3,10c.18,1,.32,2.06.43,3.1.47.5.94,1,1.41,1.58A42.61,42.61,0,0,0,188.34,136Zm5.88,9.76c-.09-2.51-.12-5-.38-7.54-.35-3.34-.87-7-2.65-10-.39-.15-.78-.29-1.18-.42a21.84,21.84,0,0,1,2.88,10.95c.06,2.32.14,4.63.21,7v.22c.42.59.83,1.2,1.24,1.83C194.29,147.05,194.24,146.36,194.22,145.72ZM223.12,243c-.88-7.52,1.43-14.76,4.48-21.54,2.64-5.88,5.46-11.65,7.32-17.82l-.21-.37c-2.25,6.42-6,12.25-8.77,18.45-2.4,5.43-4.24,11.43-3.85,17.39.32,1.36.64,2.73,1,4.12A.29.29,0,0,0,223.12,243ZM182.69,132.47c.21.8.38,1.61.52,2.42l1,.88a31,31,0,0,0-.68-3.43,26.24,26.24,0,0,0-2.57-6.66l-1-.15A46.47,46.47,0,0,1,182.69,132.47ZM231.19,221a49.73,49.73,0,0,0-6.59,19.18,58.09,58.09,0,0,0-.58,7.14c.22.92.44,1.86.66,2.8.77-6.39,1.24-12.79,3.2-19a45.79,45.79,0,0,1,4.2-9.63c1.63-2.74,3.45-5.37,4.89-8.22a24.87,24.87,0,0,0,1.08-2.44q-.15-.54-.33-1.08C236.21,213.79,233.38,217.44,231.19,221ZM208.1,170.25c.58-3.57,1.4-7.09,2-10.65a50,50,0,0,0,.84-8.72l-.31-.52c-.27-.48-.53-1-.78-1.46a56.18,56.18,0,0,1-1.27,11.41c-.65,3.42-1.42,6.82-1.94,10.27-.2,1.29-.34,2.58-.44,3.88.4,1.22.78,2.45,1.16,3.69q0-1.2.06-2.4A53.53,53.53,0,0,1,208.1,170.25Zm4.57-1.86a55.45,55.45,0,0,0,2.26-11.59l-.94-1.32c-.15,4.77-1.86,9.46-3.09,14.15A72.49,72.49,0,0,0,208.84,180c-.1.8-.16,1.61-.21,2.42.41,1.46.8,2.92,1.18,4.37,0-.6,0-1.19,0-1.79a44.85,44.85,0,0,1,.48-5.55A101,101,0,0,1,212.67,168.39Zm-35.77-38.2,1,.64a19.29,19.29,0,0,0-1.77-5.75l-.72-.06C175.93,126.74,176.47,128.45,176.9,130.19Zm43.53,65.9c1.27-3.16,2.57-6.36,4-9.46.41-.89.86-1.78,1.27-2.69-.16-.63-.31-1.26-.45-1.9a35.36,35.36,0,0,1-2.16,5.47c-1.4,2.88-2.78,5.75-4,8.72a44.77,44.77,0,0,0-3.71,13.83c.23,1,.47,2,.7,3.07A63,63,0,0,1,220.43,196.09Zm-1.65,21.36a45.94,45.94,0,0,1,1.24-4.64c1-3.07,2.26-6.06,3.55-9a66.25,66.25,0,0,0,4.45-12.5q-.3-.74-.57-1.47c-1.16,4.93-3.27,9.58-5.31,14.25a66.37,66.37,0,0,0-3.3,8.82,26.22,26.22,0,0,0-1.11,7.38c.14.59.28,1.2.42,1.81C218.38,220.53,218.45,219,218.78,217.45Zm7-4.66c1.51-3,3.15-6,4.56-9a21,21,0,0,0,1.7-5c-.22-.35-.43-.7-.64-1.06a22.73,22.73,0,0,1-2.8,6.77c-1.7,3-3.41,5.87-4.86,9a38.65,38.65,0,0,0-4.06,15.13l.77,3.36C220.42,225.2,222.74,218.79,225.76,212.79Zm-13.51-16.12c0-.8-.11-1.62-.11-2.42a20.34,20.34,0,0,1,.18-3.12,30.41,30.41,0,0,1,1.34-5.23c1.23-3.61,2.78-7.09,3.8-10.77a54.31,54.31,0,0,0,1.79-10.83c0-.31,0-.63.05-.94-.33-.58-.68-1.14-1-1.71-.09,1.47-.22,2.93-.42,4.39a60.5,60.5,0,0,1-2.53,10.86c-1.13,3.42-2.67,6.69-3.67,10.15a31,31,0,0,0-.83,3.67Q211.52,193.57,212.25,196.67Zm2.37,8.58c.06-.92.17-1.84.3-2.75a50,50,0,0,1,1.27-5.8,93.83,93.83,0,0,1,3.73-10.56,75.48,75.48,0,0,0,3.81-10.83c-.19-.8-.4-1.59-.61-2.38a33.76,33.76,0,0,1-1,3.68c-1.16,3.43-2.51,6.79-3.79,10.17s-2.59,6.73-3.56,10.2a37.92,37.92,0,0,0-1.06,5.17l-.06.4c.3,1.26.6,2.54.9,3.86C214.59,206,214.59,205.63,214.62,205.25Zm-10-35.5c0-.37,0-.74.06-1.1.13-1.65.33-3.29.53-4.94.4-3.21.88-6.4,1.24-9.61a58.86,58.86,0,0,0,.47-11.32c-.5-1-1-2-1.58-3a47.6,47.6,0,0,1,.41,5.49,69.84,69.84,0,0,1-.63,8.91c-.38,3-.87,6-1.28,9-.15,1.12-.27,2.24-.38,3.36C203.89,167.64,204.27,168.69,204.65,169.75Zm-3.19-14.26c.08-3,.41-6.06.6-9.09a64.64,64.64,0,0,0,.09-8.58,24.71,24.71,0,0,0-.31-2.8c-.39-.4-.79-.78-1.2-1.15a19.47,19.47,0,0,1,.47,5.18c0,2.72-.27,5.43-.51,8.14s-.47,5.48-.52,8.23c0,1,0,2,0,3,.51,1.12,1,2.27,1.49,3.43C201.58,159.76,201.4,157.63,201.46,155.49Z" style="fill:#455a64"></path><path d="M237.8,328.56c-3.49-25.15-14.74-90.15-20.54-114.87-2.9-12.35-6-24.65-9.64-36.81-3.34-11.27-7.51-22.39-14.43-32-6.52-9.07-15.61-16.67-26.54-19.62-.29-.08-.32.52-.08.59,9.87,3,18,9.9,23.93,18.19,6.61,9.22,10.45,20.16,13.63,31,3.45,11.68,6.4,23.53,9.23,35.38q4.33,18.21,7.86,36.62c2.64,13.83,11.52,67.75,13.45,81.7C234.9,330.36,238.05,330.37,237.8,328.56Z"></path><path d="M251.47,278.91q-.24-6.2-.53-12.38c-.39-8.18-.92-16.35-1.48-24.51q-1.65-24.22-3.87-48.41c-1.45-16.07-3.11-32.13-4.83-48.17s-3.39-32.22-5.37-48.29a238.28,238.28,0,0,0-4.49-26.54,190.46,190.46,0,0,0-8.57-25.92c-.21-.54-.64-.11-.5.32a199.35,199.35,0,0,1,6.24,24.17C229.7,77,230.84,85,231.76,92.91c1.83,15.83,3.39,31.7,5,47.55,3.29,32.08,6.39,64.19,8.69,96.36q1,13.44,1.71,26.9c.26,4.52.54,9,.79,13.56.25,4.7.23,46.4.87,51.06.2,1.44,2.8,2,2.87.28C251.9,324.36,251.63,283.17,251.47,278.91Z"></path><path d="M180.07,86.12c7.92,7.29,17.5,15.91,18.86,28a17.37,17.37,0,0,0,.1-2.22,35.89,35.89,0,0,0-6.55-20.07c-7.89-11.45-16.62-14-18.51-26.61,0-.18-.12.29-.19,1.22,0,0,0,0,0,0C173.55,70.09,173.81,80.36,180.07,86.12Z" style="fill:#BA68C8"></path><path d="M180.07,86.12c7.92,7.29,17.5,15.91,18.86,28a17.37,17.37,0,0,0,.1-2.22,35.89,35.89,0,0,0-6.55-20.07c-7.89-11.45-16.62-14-18.51-26.61,0-.18-.12.29-.19,1.22,0,0,0,0,0,0C173.55,70.09,173.81,80.36,180.07,86.12Z" style="fill:#fff;opacity:0.30000000000000004"></path><path d="M192.48,91.82a51.3,51.3,0,0,0-4.22-5.34c.09.13.18.25.26.38,1,1.56,1.9,3.21,2.82,4.82a19.39,19.39,0,0,0-2.16-1.45A15.33,15.33,0,0,1,191.47,94q-1.56-1.68-3.27-3.19a16.44,16.44,0,0,0-1.68-1.31,17.54,17.54,0,0,1-1.84-1.19,49.44,49.44,0,0,1,3.6,3.64A8.7,8.7,0,0,1,189.77,94l-7.05-5.58c-.84-.66-1.67-1.51-2.55-2.22,7.9,7.28,17.41,15.87,18.76,27.9a17.37,17.37,0,0,0,.1-2.22A35.89,35.89,0,0,0,192.48,91.82Z" style="fill:#BA68C8;opacity:0.6000000000000001"></path><path d="M197,100.6c.08.64.2,1.41.25,1.9a14.67,14.67,0,0,0-1.69-3.26,25.06,25.06,0,0,1,1.35,3.56c-1.08-1.23-1.92-2.64-2.91-3.94a30.37,30.37,0,0,1,2.79,5.66,1.39,1.39,0,0,1-.21-.21,26.85,26.85,0,0,0-3.43-4.41,30.26,30.26,0,0,1,5.79,14.21,17.37,17.37,0,0,0,.1-2.22A34.43,34.43,0,0,0,197,100.6Z" style="opacity:0.2"></path><path d="M180.92,80a44.8,44.8,0,0,1,5,4.89,30.79,30.79,0,0,0-4.52-3.08A32.73,32.73,0,0,1,188.28,89a27.91,27.91,0,0,0-4.71-4.38c-.91-.62-1.89-1.13-2.81-1.73A17.4,17.4,0,0,1,179,81.57a21.13,21.13,0,0,0,3.87,4.82,15.12,15.12,0,0,1-4.34-4.09c.21.62.43,1.24.64,1.87a37.68,37.68,0,0,1-2.59-5,6.68,6.68,0,0,1-.7-3,9.35,9.35,0,0,0,1.81,4.08,8.33,8.33,0,0,1-.86-2.93,8.53,8.53,0,0,0,3,3.75,8.42,8.42,0,0,1-1.12-1.81l1.27.91a12.25,12.25,0,0,1-3.21-5.84C177.44,76.53,179.23,78.42,180.92,80Z" style="fill:#fff;opacity:0.30000000000000004"></path><path d="M171.05,95.94c1,.44,16.34,7,23.37,14.55l1.82.39,3.79.8c-.28-.06-1-1.5-1.16-1.77-.57-.82-1.15-1.63-1.77-2.42a19.74,19.74,0,0,0-2.55-2.7,6.94,6.94,0,0,0-2.71-1.74c-.36-.09-.86,0-.94.33a.66.66,0,0,0,0,.31,3.7,3.7,0,0,0,.38,1,42.68,42.68,0,0,1-3.94-2.26,2.1,2.1,0,0,1-.91-.91.81.81,0,0,1,.34-1,2.5,2.5,0,0,1,1.44-.19c-2.58-1.43-5.54-1.82-8.39-2.32S174,96.66,171.05,95.94Z" style="fill:#455a64"></path><path d="M200,111.68c-.28-.06-1-1.5-1.16-1.77-.4-.58-.82-1.15-1.24-1.71-1.6-1.36-3.21-2.92-5.17-3.69a14.4,14.4,0,0,1,2,1.93l-1-.57a2.31,2.31,0,0,0-.75-.3,15.51,15.51,0,0,1,2.11,2L192.16,106a8.34,8.34,0,0,1,1.3,1.67c-7.18-6.54-21.39-11.43-22.41-11.77,1,.41,14.15,6,21.69,12.89l.82.78.07.06c.27.27.54.55.79.82l1.82.39h0Z" style="fill:#37474f"></path><path d="M199,106.3l0-.07h0a37,37,0,0,0,1.24-12c-.48-6.16-3.52-22-2.22-28.95l.06-.29C197.05,67.79,191.49,81.33,199,106.3Z" style="fill:#BA68C8"></path><path d="M199,106.3l0-.07h0a37,37,0,0,0,1.24-12c-.48-6.16-3.52-22-2.22-28.95l.06-.29C197.05,67.79,191.49,81.33,199,106.3Z" style="fill:#fff;opacity:0.30000000000000004"></path><path d="M199,106.3l0-.07h0a37,37,0,0,0,1.24-12C200,91,199,85.17,198.35,79.32a21.17,21.17,0,0,0,.11,3c.21,2.57.27,5,.66,7.56a14.43,14.43,0,0,1-1-3.29,58.13,58.13,0,0,0,.66,9.12,28.4,28.4,0,0,1-1.18-3.55,16.24,16.24,0,0,0,.35,4.31A20.34,20.34,0,0,1,195.68,91,92.88,92.88,0,0,0,199,106.3Z" style="fill:#BA68C8;opacity:0.6000000000000001"></path><path d="M199.6,101.35a27.2,27.2,0,0,0-.29-3c-.08,1.14-.17,2.27-.25,3.4a17.32,17.32,0,0,1-1.23-4.54,26.58,26.58,0,0,0,.88,5.72,4.61,4.61,0,0,1-1.2-2c.42,1.73.89,3.51,1.44,5.37l0-.07h0a37.2,37.2,0,0,0,1.29-11.17A40.3,40.3,0,0,1,199.6,101.35Z" style="opacity:0.2"></path><path d="M198,83a25.86,25.86,0,0,1-1.14-3.66A77.28,77.28,0,0,0,197,88c-.2-1.2-.56-3.52-.65-4.62a13,13,0,0,0-.26,2.35,25.89,25.89,0,0,1-.32-3.61c0-.67,0-1.35.09-2a11.16,11.16,0,0,0,.16-1.81c.08.76.16,1.52.25,2.28.11-1.2.24-2.41.37-3.61a9.72,9.72,0,0,0,.36,1.55c.19-1.7.06-3.44.3-5.15,0,1.57,0,3.1.14,4.65S197.75,81.33,198,83Z" style="fill:#fff;opacity:0.30000000000000004"></path><path d="M199,106.3s1-3,6.06-7.48c4.59-4,6.67-8.53,6.37-16.63a.24.24,0,0,0,0-.12c0-.83-.08-1.7-.17-2.6a18.2,18.2,0,0,1-3.77,10.23c-3.21,3.9-7.15,9.22-8.21,14.25A12.76,12.76,0,0,0,199,106.3Z" style="fill:#BA68C8"></path><path d="M199,106.3s1-3,6.06-7.48c4.59-4,6.67-8.53,6.37-16.63a.24.24,0,0,0,0-.12c0-.83-.08-1.7-.17-2.6a18.2,18.2,0,0,1-3.77,10.23c-3.21,3.9-7.15,9.22-8.21,14.25A12.76,12.76,0,0,0,199,106.3Z" style="fill:#fff;opacity:0.30000000000000004"></path><path d="M207.91,95.5A11.19,11.19,0,0,1,206.36,97a12.08,12.08,0,0,0-1.69,1,18.27,18.27,0,0,0,2.65-4,8.13,8.13,0,0,0-1,1c-1.21,1.32-2,2-3.23,3.27a9.5,9.5,0,0,1,1.27-2.67,16.2,16.2,0,0,0-2.18,2.57.91.91,0,0,1,.12-.85c.51-1,1-2,1.52-2.94a27.65,27.65,0,0,0-4.58,9.5,13.35,13.35,0,0,0-.26,1.87l.12.14c.4-.9,1.83-3.56,5.92-7.14a18.23,18.23,0,0,0,4.49-5.6C208.94,94,208.49,94.86,207.91,95.5Z" style="fill:#BA68C8;opacity:0.6000000000000001"></path><path d="M202.65,101.07l-.39.33-1.69,1.52c.45-.91.89-1.82,1.34-2.72-.1.19-.4.38-.54.55a7.9,7.9,0,0,0-.5.68c-.34.52-.73,1-1.06,1.51a4.82,4.82,0,0,1,.29-1.8.62.62,0,0,1-.12.29,17.57,17.57,0,0,0-.75,2.52,13.35,13.35,0,0,0-.26,1.87l.12.14A18.43,18.43,0,0,1,202.65,101.07Z" style="opacity:0.2"></path><path d="M208.7,93.27c.12-.84.25-1.68.38-2.52a10.5,10.5,0,0,1-3.37,4.13,31.5,31.5,0,0,0,2-3.52c-1,.9-1.86,1.85-2.72,2.83a12.29,12.29,0,0,1,3.61-4.45c-.28.71-.53,1.42-.83,2.13a9.25,9.25,0,0,0,1.71-3.4,6.53,6.53,0,0,1-.08,1.71,4,4,0,0,1,.23-.53c.06-.15.08-.31.13-.46.14-.41.28-.81.4-1.22.25-.8.46-1.62.63-2.44a5.11,5.11,0,0,0,0,.78c0,.24,0,.46,0,.7a12.1,12.1,0,0,1-.26,1.58,19.14,19.14,0,0,1-1.39,3.77A3.85,3.85,0,0,0,208.7,93.27Z" style="fill:#fff;opacity:0.30000000000000004"></path><path d="M197.76,113.09l1.85.51,3.81,1.05c-4.95-9.17,6.76-11.72,18.3-13.41,11.22-1.66,13.22-6.54,13.32-6.82-12.13,8.16-19.68,2.35-29.15,4.75s-7.83,10-7.83,10l0,.62Z" style="fill:#BA68C8"></path><path d="M197.76,113.09l1.85.51,3.81,1.05c-4.95-9.17,6.76-11.72,18.3-13.41,11.22-1.66,13.22-6.54,13.32-6.82-12.13,8.16-19.68,2.35-29.15,4.75s-7.83,10-7.83,10l0,.62Z" style="fill:#fff;opacity:0.30000000000000004"></path><path d="M216.55,100.94c-1.81.06-3.54.46-5.32.69a8.86,8.86,0,0,1,2.85-1.65,13.64,13.64,0,0,0-4.89,1.29,13.32,13.32,0,0,0-2,.93c-.52.34-1.6,1-1.83,1.58a7.59,7.59,0,0,1,2.49-3.12,7.24,7.24,0,0,0-3.49,1.5c-.39.32-.81.61-1.19.93a7.8,7.8,0,0,0-1,1.1c-.12.15-.25.29-.36.45a1,1,0,0,0-.08.11l-.24.35a5.2,5.2,0,0,1,.93-2.66c-.68.17-1.12.84-1.54,1.35a10,10,0,0,0-1.2,1.88,10.49,10.49,0,0,0-1.06,4.3,6.73,6.73,0,0,0,.82,3.58l.16,0,3.81,1.05c-4.95-9.17,6.76-11.72,18.3-13.41a38.74,38.74,0,0,0,3.9-.79c-1.11.15-2.23.24-3.34.3C220.37,100.86,218.46,100.88,216.55,100.94Z" style="fill:#BA68C8;opacity:0.6000000000000001"></path><path d="M212.28,103c-.65,0-1.29.13-1.94.23s-1.2.22-1.79.36a5.85,5.85,0,0,0-1.67.42,17.52,17.52,0,0,1,2.38-1.35,11.71,11.71,0,0,0-6.18,3.58,4.42,4.42,0,0,1,.85-2,7.48,7.48,0,0,0-2.27,4.47,3.5,3.5,0,0,1-.14-1.84,17,17,0,0,0-.68,3,2.53,2.53,0,0,1-.36-2,5,5,0,0,0-.12,3.65,9.65,9.65,0,0,1-1.39-1,5.51,5.51,0,0,0,2.24,3.12c.14.12.55.44,1,.77l1.17.32C199.87,108.07,204.89,104.9,212.28,103Z" style="opacity:0.2"></path><path d="M205.61,100.55a10.82,10.82,0,0,0-1.87,1c-.05-.11,0-.22.14-.3a7.27,7.27,0,0,1,1.68-1.18,19.65,19.65,0,0,1,2-.72,7.56,7.56,0,0,1,2.32-.32.08.08,0,0,1,.08,0c.07,0,0,.15-.08.2a3.6,3.6,0,0,0-1.14.71,16.36,16.36,0,0,1,2.49-.49,5.46,5.46,0,0,1,1.34,0,.12.12,0,0,1,.1,0c.07.09-.06.18-.16.21a28.93,28.93,0,0,0-4.11,1.51,2.27,2.27,0,0,1,1.19-1,7.72,7.72,0,0,0-3,.44,3.66,3.66,0,0,1,.86-.71A11.4,11.4,0,0,0,205.61,100.55Z" style="fill:#fff;opacity:0.30000000000000004"></path><path d="M214.68,98.66a28.16,28.16,0,0,0,5.23.88c.76,0,1.53,0,2.3,0,.32,0,.63,0,.94,0a3.51,3.51,0,0,0,1.08-.1,8.31,8.31,0,0,1-1.73.62,16.93,16.93,0,0,0,3.31-.47,7,7,0,0,0,.88-.3,23,23,0,0,0,3.84-1.94l-2,1.59a20.41,20.41,0,0,0,4-2.26,10.14,10.14,0,0,0,2.4-2.15c0-.06,0-.11,0-.13C226.82,100,220.71,99.06,214.68,98.66Z" style="fill:#fff;opacity:0.30000000000000004"></path><path d="M150.86,102.93c5.48,3.21,10.63,7,16.43,9.58,11.86,5.27,25.57,5.09,37.44,10.32a11.9,11.9,0,0,1,5.63,4.9,19.79,19.79,0,0,1-1-3.3,31.47,31.47,0,0,0-3.89-7.31c-4.86-6.71-12.18-9.14-20.09-10.42C173.92,104.85,162.14,105.83,150.86,102.93Z" style="fill:#BA68C8"></path><path d="M176.34,108.86c-7.19-.85-14.53-1.4-21.43-3.45a100,100,0,0,0,12.38,7.1c11.86,5.27,25.57,5.09,37.44,10.32a14.93,14.93,0,0,1,1.91,1,21.29,21.29,0,0,0-8-6.3,2.28,2.28,0,0,1-1.35-1.06,9.2,9.2,0,0,1,3.66,0C193.8,111.5,184.94,109.87,176.34,108.86Z" style="fill:#fff;opacity:0.45"></path><path d="M189.71,170.73c5.39,7.15,11.93,15.63,11.23,25.72a13.26,13.26,0,0,0,.42-1.81A29.8,29.8,0,0,0,199,177.25c-4.74-10.55-11.5-13.95-11.16-24.53,0-.16-.14.21-.33,1a.06.06,0,0,0,0,0C186.78,156.64,185.45,165.08,189.71,170.73Z" style="fill:#BA68C8"></path><path d="M189.71,170.73c5.39,7.15,11.93,15.63,11.23,25.72a13.26,13.26,0,0,0,.42-1.81A29.8,29.8,0,0,0,199,177.25c-4.74-10.55-11.5-13.95-11.16-24.53,0-.16-.14.21-.33,1a.06.06,0,0,0,0,0C186.78,156.64,185.45,165.08,189.71,170.73Z" style="fill:#fff;opacity:0.30000000000000004"></path><path d="M199,177.25a45.37,45.37,0,0,0-2.65-5l.15.35c.59,1.43,1.07,2.91,1.59,4.37a14.94,14.94,0,0,0-1.56-1.52,12,12,0,0,1,1.31,3.42,37.05,37.05,0,0,0-2.19-3.11,16.23,16.23,0,0,0-1.17-1.32,15.72,15.72,0,0,1-1.33-1.24,41.82,41.82,0,0,1,2.4,3.51,7.07,7.07,0,0,1,.9,1.93q-2.46-2.82-4.93-5.62c-.58-.67-1.14-1.49-1.75-2.2,5.37,7.13,11.86,15.58,11.16,25.63a13.26,13.26,0,0,0,.42-1.81A29.8,29.8,0,0,0,199,177.25Z" style="fill:#BA68C8;opacity:0.6000000000000001"></path><path d="M201.38,185.1c0,.54,0,1.19-.08,1.6a11.85,11.85,0,0,0-.89-2.92,23.31,23.31,0,0,1,.57,3.11c-.7-1.17-1.18-2.45-1.79-3.66a26,26,0,0,1,1.44,5.05c-.07-.1-.1-.1-.14-.21a23,23,0,0,0-2.16-4.11,25.08,25.08,0,0,1,2.61,12.49,13.26,13.26,0,0,0,.42-1.81A28.62,28.62,0,0,0,201.38,185.1Z" style="opacity:0.2"></path><path d="M191.33,165.84a36.66,36.66,0,0,1,3.38,4.76,25.7,25.7,0,0,0-3.23-3.2,27.62,27.62,0,0,1,4.52,6.92,23.64,23.64,0,0,0-3.2-4.28c-.65-.65-1.38-1.21-2-1.84a14.71,14.71,0,0,1-1.25-1.36,17.7,17.7,0,0,0,2.44,4.53,12.43,12.43,0,0,1-2.93-4l.24,1.63a29.39,29.39,0,0,1-1.36-4.49,5.46,5.46,0,0,1-.12-2.6,7.88,7.88,0,0,0,.86,3.62,7,7,0,0,1-.26-2.53,7.18,7.18,0,0,0,1.87,3.51,7.33,7.33,0,0,1-.64-1.65l.9.94a10.25,10.25,0,0,1-1.75-5.26A11.63,11.63,0,0,0,191.33,165.84Z" style="fill:#fff;opacity:0.30000000000000004"></path><path d="M180.87,177.41c.78.51,12.32,8.14,16.93,15.4l1.43.59,3,1.22c-.22-.09-.58-1.37-.69-1.62-.34-.75-.69-1.51-1.08-2.24a17,17,0,0,0-1.68-2.6,5.69,5.69,0,0,0-2-1.82c-.28-.13-.69-.16-.81.12a.5.5,0,0,0,0,.27,3,3,0,0,0,.17.83,37.12,37.12,0,0,1-2.88-2.44,1.79,1.79,0,0,1-.61-.88.68.68,0,0,1,.43-.76,2,2,0,0,1,1.2.06c-1.89-1.55-4.25-2.31-6.51-3.16S183.17,178.44,180.87,177.41Z" style="fill:#455a64"></path><path d="M202.21,194.62c-.22-.09-.58-1.37-.69-1.62q-.36-.8-.75-1.59a16.56,16.56,0,0,0-3.68-3.79,12.28,12.28,0,0,1,1.37,1.89l-.77-.63a2,2,0,0,0-.57-.35,12.38,12.38,0,0,1,1.42,2l-1.92-1.66a6.81,6.81,0,0,1,.81,1.56c-4.89-6.43-15.78-12.55-16.56-13,.73.48,10.67,7.06,15.8,13.79l.56.76,0,.06c.19.26.37.53.53.79l1.43.59h0Z" style="fill:#37474f"></path><path d="M202.14,190.06l0-.05h0a30.77,30.77,0,0,0,2.81-9.6c.53-5.12.41-18.55,2.52-24a1.94,1.94,0,0,1,.09-.23C206.35,158.28,199.77,168.52,202.14,190.06Z" style="fill:#BA68C8"></path><path d="M202.14,190.06l0-.05h0a30.77,30.77,0,0,0,2.81-9.6c.53-5.12.41-18.55,2.52-24a1.94,1.94,0,0,1,.09-.23C206.35,158.28,199.77,168.52,202.14,190.06Z" style="fill:#fff;opacity:0.30000000000000004"></path><path d="M202.14,190.06l0-.05h0a30.77,30.77,0,0,0,2.81-9.6c.27-2.67.37-7.61.71-12.5a16.13,16.13,0,0,0-.36,2.51c-.22,2.13-.53,4.14-.6,6.28a12,12,0,0,1-.35-2.85,49.11,49.11,0,0,0-.82,7.56,23,23,0,0,1-.43-3.08,13.42,13.42,0,0,0-.37,3.58,17.11,17.11,0,0,1-1-4.86A77.74,77.74,0,0,0,202.14,190.06Z" style="fill:#BA68C8;opacity:0.6000000000000001"></path><path d="M203.4,186.11a20.91,20.91,0,0,0,.21-2.49c-.23.91-.47,1.82-.71,2.74a14.74,14.74,0,0,1-.33-3.91,22.83,22.83,0,0,0-.13,4.82,3.71,3.71,0,0,1-.68-1.81c.08,1.47.2,3,.38,4.6l0-.05h0a31.17,31.17,0,0,0,2.73-8.94A34,34,0,0,1,203.4,186.11Z" style="opacity:0.2"></path><path d="M204.8,170.86a22.66,22.66,0,0,1-.38-3.17,65,65,0,0,0-1.14,7.07c0-1,.07-3,.16-3.87a10.3,10.3,0,0,0-.56,1.88,22.91,22.91,0,0,1,.28-3c.11-.55.24-1.1.37-1.64a9.63,9.63,0,0,0,.41-1.46l-.14,1.91c.27-1,.55-1.94.84-2.9a8.28,8.28,0,0,0,.07,1.32c.41-1.36.56-2.8,1-4.17-.24,1.28-.46,2.54-.58,3.83S204.89,169.46,204.8,170.86Z" style="fill:#fff;opacity:0.30000000000000004"></path><path d="M202.14,190.06s1.24-2.34,6.07-5.21c4.36-2.6,6.73-6,7.7-12.65a.37.37,0,0,0,0-.09c.09-.69.18-1.4.24-2.16a15.05,15.05,0,0,1-4.61,7.81c-3.21,2.7-7.23,6.46-8.85,10.42A10.13,10.13,0,0,0,202.14,190.06Z" style="fill:#BA68C8"></path><path d="M202.14,190.06s1.24-2.34,6.07-5.21c4.36-2.6,6.73-6,7.7-12.65a.37.37,0,0,0,0-.09c.09-.69.18-1.4.24-2.16a15.05,15.05,0,0,1-4.61,7.81c-3.21,2.7-7.23,6.46-8.85,10.42A10.13,10.13,0,0,0,202.14,190.06Z" style="fill:#fff;opacity:0.30000000000000004"></path><path d="M211.08,182.57a9.65,9.65,0,0,1-1.49,1,11.21,11.21,0,0,0-1.54.6,15.15,15.15,0,0,0,2.76-2.84,6.61,6.61,0,0,0-1,.7c-1.19.89-1.94,1.29-3.13,2.19a7.67,7.67,0,0,1,1.44-2A13.12,13.12,0,0,0,206,184c-.09-.24.08-.48.23-.68l1.68-2.17a23.05,23.05,0,0,0-5.17,7.08,11.79,11.79,0,0,0-.49,1.49,1,1,0,0,0,.08.14c.46-.68,2-2.65,5.91-5a15.06,15.06,0,0,0,4.5-3.91C212.15,181.46,211.65,182.13,211.08,182.57Z" style="fill:#BA68C8;opacity:0.6000000000000001"></path><path d="M205.94,186.34l-.36.21-1.62,1,1.5-2c-.1.14-.38.26-.52.38a5.79,5.79,0,0,0-.51.48c-.35.37-.75.69-1.09,1.07a4,4,0,0,1,.5-1.42.49.49,0,0,1-.14.21,14.9,14.9,0,0,0-1,2,11.79,11.79,0,0,0-.49,1.49,1,1,0,0,0,.08.14A15,15,0,0,1,205.94,186.34Z" style="opacity:0.2"></path><path d="M212.05,180.86l.69-2a8.59,8.59,0,0,1-3.37,2.87,26.67,26.67,0,0,0,2.18-2.57c-.91.59-1.79,1.23-2.64,1.91a10.14,10.14,0,0,1,3.62-3.11c-.33.55-.65,1.09-1,1.62a7.87,7.87,0,0,0,1.91-2.52,6,6,0,0,1-.32,1.39,3.42,3.42,0,0,1,.26-.4c.07-.12.12-.24.18-.36.18-.31.35-.62.51-.94.32-.62.62-1.25.88-1.9a4.49,4.49,0,0,0-.1.64c0,.19-.08.38-.13.57a11.75,11.75,0,0,1-.46,1.25,15.46,15.46,0,0,1-1.7,2.88A3.6,3.6,0,0,0,212.05,180.86Z" style="fill:#fff;opacity:0.30000000000000004"></path><path d="M200.15,195.44l1.43.69,3,1.43c-2.68-8.24,7.28-8.57,17-8.23,9.43.32,11.79-3.37,11.92-3.58-11.15,4.85-16.45-1-24.55-.48s-7.91,7-7.91,7l-.12.5Z" style="fill:#BA68C8"></path><path d="M200.15,195.44l1.43.69,3,1.43c-2.68-8.24,7.28-8.57,17-8.23,9.43.32,11.79-3.37,11.92-3.58-11.15,4.85-16.45-1-24.55-.48s-7.91,7-7.91,7l-.12.5Z" style="fill:#fff;opacity:0.30000000000000004"></path><path d="M217.32,188.31c-1.48-.22-3-.15-4.45-.23a7.47,7.47,0,0,1,2.58-.93,11.39,11.39,0,0,0-4.19.33,11,11,0,0,0-1.8.46,4.07,4.07,0,0,0-1.73,1,6.18,6.18,0,0,1,2.5-2.17,6,6,0,0,0-3.08.7c-.37.21-.75.38-1.11.58a6.33,6.33,0,0,0-.95.76c-.12.1-.25.2-.36.31a.6.6,0,0,0-.08.08,3,3,0,0,0-.25.25,4.34,4.34,0,0,1,1.15-2,2.68,2.68,0,0,0-1.45.87,7.79,7.79,0,0,0-1.27,1.36,8.62,8.62,0,0,0-1.51,3.35,5.68,5.68,0,0,0,.13,3.06l.13.06,3,1.43c-2.68-8.24,7.28-8.57,17-8.23a31.94,31.94,0,0,0,3.31-.06c-.93-.05-1.86-.14-2.77-.25C220.47,188.82,218.9,188.55,217.32,188.31Z" style="fill:#BA68C8;opacity:0.6000000000000001"></path><path d="M213.53,189.36q-.81-.08-1.62-.09c-.51,0-1,0-1.52,0a4.52,4.52,0,0,0-1.43.1,15.27,15.27,0,0,1,2.15-.76,9.77,9.77,0,0,0-5.59,2,3.62,3.62,0,0,1,1-1.53,6.24,6.24,0,0,0-2.52,3.32,2.85,2.85,0,0,1,.16-1.53,15.26,15.26,0,0,0-1,2.35,2.13,2.13,0,0,1,0-1.73,4.07,4.07,0,0,0-.64,3,8,8,0,0,1-1-1,4.58,4.58,0,0,0,1.36,2.89c.1.11.39.44.74.78l.91.44C202.62,191.65,207.2,189.81,213.53,189.36Z" style="opacity:0.2"></path><path d="M208.44,186.36a8.87,8.87,0,0,0-1.68.53c0-.1.07-.17.16-.22a5.91,5.91,0,0,1,1.55-.72c.57-.14,1.16-.19,1.74-.29a6.66,6.66,0,0,1,1.94.09.08.08,0,0,1,.07,0c.05,0,0,.13-.1.15a3.06,3.06,0,0,0-1,.41,12.39,12.39,0,0,1,2.11,0,4,4,0,0,1,1.09.19s.07,0,.08.05-.07.14-.16.15a22.71,22.71,0,0,0-3.58.62,1.85,1.85,0,0,1,1.11-.62,6.37,6.37,0,0,0-2.54-.09,2.8,2.8,0,0,1,.81-.45A8.12,8.12,0,0,0,208.44,186.36Z" style="fill:#fff;opacity:0.30000000000000004"></path><path d="M216.14,186.17a23.54,23.54,0,0,0,4.14,1.5c.62.15,1.25.26,1.88.36.26,0,.51.12.77.14a2.77,2.77,0,0,0,.9.08,7,7,0,0,1-1.51.25,14.38,14.38,0,0,0,2.78.11,4.81,4.81,0,0,0,.76-.12,19.38,19.38,0,0,0,3.44-1l-1.85,1a16.73,16.73,0,0,0,3.63-1.24,8.21,8.21,0,0,0,2.29-1.41l.06-.09C225.88,189,221,187.4,216.14,186.17Z" style="fill:#fff;opacity:0.30000000000000004"></path><path d="M163.3,180.11c4,3.44,7.65,7.31,12,10.29,8.91,6.08,20.15,8,29.07,14a9.91,9.91,0,0,1,3.88,4.85,17.89,17.89,0,0,1-.36-2.86,26,26,0,0,0-2.08-6.56c-3-6.22-8.6-9.3-14.87-11.53C181.88,185.13,172.09,184.17,163.3,180.11Z" style="fill:#BA68C8"></path><path d="M183.25,188.76c-5.75-1.77-11.67-3.31-17-6a84.67,84.67,0,0,0,9.07,7.66c8.91,6.08,20.15,8,29.07,14a10.06,10.06,0,0,1,1.41,1.12,17.65,17.65,0,0,0-5.64-6.37c-.4-.27-.85-.58-.94-1.06a7.52,7.52,0,0,1,3,.53C197.14,193.54,190.14,190.89,183.25,188.76Z" style="fill:#fff;opacity:0.45"></path><path d="M232.13,259.55a42.8,42.8,0,0,0-3.3-8.48c-3.44-6.87-7.34-13.59-12.49-19.34-7.23-8.06-16.63-13.88-26.41-18.53-6.27-3-12.84-5.54-19.74-6.26a6.06,6.06,0,0,0-4,.56c-1.14.74-1.64,2.57-.63,3.48a2.73,2.73,0,0,0-3.14,1.4,7.14,7.14,0,0,0-.66,3.64c.12,10.09,4.11,19.43,8.53,28.29a94.1,94.1,0,0,0,5.5,9.87c4.36,6.61,10.13,12.16,16.14,17.3,7.9,6.77,18.79,9.46,29.09,8.22,3.14-.38,6.4-1.24,8.63-3.48a11.48,11.48,0,0,0,2.92-5.92A24.28,24.28,0,0,0,232.13,259.55Z" style="fill:#37474f"></path><path d="M188.84,212.7c.56,1.78,1.1,3.57,1.56,5.38,1.07,4.22,2,8.48,2.64,12.78.11.66-.83.23-.91-.25a184.29,184.29,0,0,0-3.91-18.2Zm-1.6,13.23c.11.49,1,.71.81,0a149.38,149.38,0,0,0-4.43-15.53l-.44-.18C184.7,215.45,186,220.68,187.24,225.93Zm-7.46-5.88c.06.41.74.69.66.13-.59-3.92-1.38-7.8-2.34-11.64l-.42-.12C178.53,212.27,179.22,216.15,179.78,220.05ZM173,215.33c.09.44.85.69.72.11a65.88,65.88,0,0,0-2.36-8.34l-.63-.09A84.43,84.43,0,0,1,173,215.33Zm28.63,23.57c.32,0,.18-.61-.09-.62-6.65-.38-13.29-.68-19.92-1.34-5.19-.51-10.39-1.15-15.56-1.91l.27.66q7.54,1.26,15.17,2A193.6,193.6,0,0,0,201.64,238.9ZM211,249.76c.07.56,1.13.92,1,.18-1.12-9.24-2.63-18.41-5.67-27.15-.27-.2-.54-.4-.82-.59C208.47,231.08,209.78,240.53,211,249.76Zm15.72,23.61a105.21,105.21,0,0,1-14.85,2.54c-4.11.38-8.22.43-12.34.43q.78.36,1.56.69a78.08,78.08,0,0,0,25.69-3.25C226.94,273.73,226.88,273.32,226.7,273.37ZM229.26,252c0,1.4,0,2.81,0,4.2,0,2.62-.13,5.23-.31,7.84-.09,1.45-.17,2.9-.26,4.35a36.59,36.59,0,0,0-.28,4.43c0,.1.11.19.16.06a17.87,17.87,0,0,0,.86-4.17c.21-1.33.4-2.66.51-4,.23-2.83.32-5.66.3-8.5,0-.73-.05-1.44-.07-2.16C229.9,253.34,229.59,252.66,229.26,252ZM161.8,215.27c5.16,1,10.31,2,15.46,3,.47.1.27-.72-.1-.8-5.09-1.05-10.19-2-15.32-2.93C161.82,214.82,161.81,215,161.8,215.27Zm38.53,11.44c.53,2.4,1,4.8,1.54,7.2.55,2.66,1.29,5.28,1.84,7.94.06.26.42.29.36,0-.42-2.57-.69-5.14-1.22-7.71-.5-2.41-1-4.83-1.55-7.24q-1-4.45-2.18-8.83l-.85-.49C199,220.61,199.64,223.66,200.33,226.71Zm13.15,10.6,1.29,8.77c.47,3.26.69,6.6,1.31,9.83.06.34.58.53.57.07a86.21,86.21,0,0,0-.9-9.21c-.37-3.16-.81-6.32-1.36-9.45s-1.06-6.31-1.83-9.42l-.77-.7C212.58,230.53,213,234,213.48,237.31ZM195.24,223c1.36,4.64,2.55,9.33,3.6,14.05.12.57,1.23.9,1.07.16q-1.6-7.1-3.66-14.06c-.82-2.77-1.77-5.47-2.76-8.16l-.72-.37C193.62,217.38,194.43,220.18,195.24,223Zm28.34,26.87c.16,2.77.23,5.55.27,8.32a56.32,56.32,0,0,0,.32,8.52c0,.21.41.54.48.18A38.93,38.93,0,0,0,225,259c0-3-.09-6-.26-9-.15-2.66-.41-5.28-.78-7.88-.41-.68-.83-1.35-1.26-2C223.11,243.36,223.4,246.61,223.58,249.84Zm-13,14.07A89.45,89.45,0,0,0,221,262.76c.19.28.64.53.64.06a63.3,63.3,0,0,0-.91-8.34c-.39-2.84-.81-5.67-1.31-8.49-.85-4.75-1.88-9.45-3-14.13l-.11-.13-.65-.69c1.06,4.88,2,9.81,2.78,14.73.45,2.68.88,5.36,1.27,8s.59,5.44,1.09,8.11c-3.45.32-6.88.84-10.33,1.13s-7.05.49-10.58.57a163.83,163.83,0,0,1-16.88-.51c.15.17.31.33.47.5,5.5.5,11,.72,16.54.7Q205.32,264.29,210.57,263.91Zm13.32,3.28c.27-.05.09-.61-.17-.57a178.91,178.91,0,0,1-21,2.09c-4.72.14-9.44,0-14.15-.24l.77.69q6.75.46,13.53.25A127.2,127.2,0,0,0,223.89,267.19Zm1.93,3.62c.23-.07.1-.55-.13-.52-6.6.93-13.12,2-19.79,2.44q-4.93.3-9.89.21c-.77,0-1.53,0-2.29-.07.4.31.82.6,1.24.89,3.84.12,7.7,0,11.46-.2A88.73,88.73,0,0,0,225.82,270.81Zm-6.77-12.74c.51-.07,0-1-.42-.91a173,173,0,0,1-40,.91l.48.63A165.51,165.51,0,0,0,219.05,258.07Zm-23-25.53a250.4,250.4,0,0,1-32.13-3.69c.06.21.13.42.2.62a170.66,170.66,0,0,0,32.06,3.74C196.49,233.21,196.31,232.55,196,232.54Zm6.16,21.79c2-.09,4-.21,6-.38q1.5-.12,3-.27a6.79,6.79,0,0,0,2.69-.52c.16-.09.06-.43-.1-.46a10.77,10.77,0,0,0-3.15.13c-1.21.12-2.42.23-3.64.33q-3.53.27-7.07.38l-1.72.05h-1.28l-19.66-1c-.86-.09-1.72-.2-2.57-.31l.46.74a148.11,148.11,0,0,0,15.32,1.29Q196.31,254.58,202.17,254.33Zm-12.29-26.7c.47,0,.29-.73-.07-.78-5.86-.8-11.76-1.37-17.63-2.12q-4.81-.61-9.63-1.27l.15.71q4.77.71,9.56,1.34C178.12,226.29,184,227.14,189.88,227.63Zm-6.26-4.73c.54.06.24-.84-.19-.9q-10.8-1.49-21.52-3.43l.06.74Q172.71,221.56,183.62,222.9Zm23,19.75c-7.34.13-14.67.17-22-.34-5.41-.37-10.81-1-16.17-1.85.11.23.22.45.32.68a149.81,149.81,0,0,0,37.91,2C206.89,243.14,206.8,242.64,206.61,242.65Zm3.55,5.51c.21,0,.11-.5-.1-.48a176.56,176.56,0,0,1-38.53-1l.42.79A129.52,129.52,0,0,0,210.16,248.16Z" style="fill:#455a64"></path><path d="M235.4,289.41a123.11,123.11,0,0,0-9-20.55A132.34,132.34,0,0,0,216,253.48a170.53,170.53,0,0,0-29-29.38,157.59,157.59,0,0,0-20.13-13.32c-.43-.24-.45.5-.16.69a200.82,200.82,0,0,1,31.45,25.67,190.35,190.35,0,0,1,13.75,15.47c4.62,5.79,9.83,12.79,13.12,19.44,11.78,23.75,14.63,48.68,16,57.64.17,1.09.49,1.74,1.73,1.89.94.11,1.16-1.39,1.08-2.41A203.65,203.65,0,0,0,235.4,289.41Z"></path><path d="M277.38,257.3a43,43,0,0,1,3.3-8.48c3.44-6.87,7.34-13.59,12.49-19.33,7.23-8.06,16.63-13.89,26.41-18.53,6.27-3,12.84-5.54,19.74-6.27a6.13,6.13,0,0,1,4,.56c1.14.75,1.64,2.58.63,3.49a2.73,2.73,0,0,1,3.14,1.4,7.14,7.14,0,0,1,.66,3.64c-.12,10.09-4.11,19.43-8.53,28.29a96,96,0,0,1-5.5,9.87c-4.36,6.6-10.13,12.16-16.14,17.3-7.9,6.76-18.79,9.45-29.09,8.22-3.14-.38-6.4-1.24-8.63-3.48a11.51,11.51,0,0,1-2.92-5.93A24.29,24.29,0,0,1,277.38,257.3Z" style="fill:#37474f"></path><path d="M321.29,210.17a183.07,183.07,0,0,0-3.91,18.2c-.08.48-1,.91-.92.25.68-4.3,1.58-8.56,2.65-12.78.46-1.81,1-3.6,1.56-5.39Zm5-2.14-.44.18a149.38,149.38,0,0,0-4.43,15.53c-.15.65.69.44.81-.05C323.51,218.44,324.81,213.2,326.33,208Zm5.5-1.86-.42.13c-1,3.84-1.75,7.71-2.34,11.64-.08.55.6.27.66-.13C330.29,213.91,331,210,331.83,206.17Zm6.94-1.4c-.21,0-.42.06-.63.09a65.73,65.73,0,0,0-2.36,8.33c-.13.59.63.34.72-.1A84.43,84.43,0,0,1,338.77,204.77ZM328,235.48q7.62-.76,15.17-2c.09-.22.18-.44.26-.66q-7.76,1.14-15.55,1.91c-6.63.65-13.27,1-19.92,1.33-.27,0-.41.63-.09.63A193.6,193.6,0,0,0,328,235.48ZM304,220l-.82.59c-3,8.75-4.56,17.91-5.67,27.15-.09.75,1,.38,1-.18C299.73,238.29,301,228.84,304,220Zm-21.23,51.59a78.07,78.07,0,0,0,25.69,3.24c.52-.21,1-.45,1.56-.69-4.12,0-8.23,0-12.34-.43a102.41,102.41,0,0,1-14.85-2.54C282.63,271.08,282.57,271.49,282.75,271.54Zm-3.44-19.75c0,.72-.06,1.43-.07,2.15,0,2.84.07,5.67.3,8.5.11,1.34.3,2.68.51,4a17.85,17.85,0,0,0,.86,4.18c0,.12.15,0,.16-.07a36.43,36.43,0,0,0-.28-4.42c-.09-1.45-.17-2.9-.27-4.36-.17-2.6-.28-5.22-.3-7.83,0-1.4,0-2.8,0-4.21C279.92,250.41,279.61,251.1,279.31,251.79Zm68.36-39.44c-5.13.89-10.23,1.88-15.32,2.93-.37.07-.57.9-.1.8,5.15-1.06,10.3-2.06,15.46-3.05C347.7,212.8,347.69,212.57,347.67,212.35Zm-36.43,3-.85.49c-.78,2.93-1.52,5.87-2.18,8.84q-.81,3.62-1.55,7.24c-.53,2.56-.8,5.13-1.22,7.71-.06.31.3.28.36,0,.55-2.66,1.29-5.28,1.84-7.94.49-2.41,1-4.81,1.54-7.2C309.87,221.42,310.55,218.36,311.24,215.31ZM297.72,225l-.77.71c-.78,3.11-1.28,6.3-1.83,9.42s-1,6.29-1.36,9.44a86.46,86.46,0,0,0-.9,9.21c0,.47.51.28.57-.06.62-3.23.84-6.58,1.31-9.83l1.29-8.78C296.52,231.74,296.93,228.29,297.72,225Zm19-12.6-.72.36c-1,2.69-1.94,5.4-2.76,8.16q-2.06,7-3.66,14.07c-.16.74.95.41,1.07-.16q1.56-7.08,3.6-14.05C315.08,217.94,315.89,215.13,316.74,212.35Zm-29.9,25.53q-.64,1-1.26,2c-.37,2.61-.63,5.23-.78,7.89-.17,3-.24,6-.26,9a38.83,38.83,0,0,0,.32,7.85c.07.37.45,0,.48-.17a56.32,56.32,0,0,0,.32-8.52c0-2.78.11-5.55.27-8.32C286.11,244.37,286.4,241.11,286.84,237.88Zm22.62,24.19c5.52,0,11-.19,16.54-.7l.47-.49a163.92,163.92,0,0,1-16.88.51q-5.29-.13-10.58-.57c-3.45-.3-6.88-.82-10.33-1.14.5-2.66.7-5.43,1.09-8.11s.82-5.36,1.27-8c.82-4.92,1.72-9.85,2.77-14.74-.21.24-.43.46-.64.7l-.11.12c-1.12,4.69-2.15,9.38-3,14.14-.5,2.82-.92,5.65-1.31,8.49a63.3,63.3,0,0,0-.91,8.34c0,.47.45.21.64-.06a89.52,89.52,0,0,0,10.45,1.15Q304.2,262,309.46,262.07Zm-2.79,5.09c4.52.14,9,.07,13.53-.24l.77-.7c-4.71.28-9.43.39-14.15.25a176.82,176.82,0,0,1-21-2.1c-.26,0-.44.53-.17.58A127.19,127.19,0,0,0,306.67,267.16Zm-3.58,4.15c3.76.2,7.62.33,11.46.21.42-.29.84-.59,1.24-.89-.76,0-1.52.06-2.29.07q-5,.07-9.89-.21c-6.67-.4-13.19-1.51-19.79-2.44-.23,0-.36.45-.13.52A89.32,89.32,0,0,0,303.09,271.31Zm27.27-14.85.49-.63a173.54,173.54,0,0,1-40-.92c-.46-.06-.93.84-.42.91A164.93,164.93,0,0,0,330.36,256.46Zm-17-25.49a171.49,171.49,0,0,0,32.06-3.74c.07-.21.14-.41.2-.62a250.39,250.39,0,0,1-32.13,3.68C313.2,230.31,313,231,313.37,231Zm5.68,21.17a151.17,151.17,0,0,0,15.32-1.29l.46-.74c-.85.11-1.71.21-2.57.3l-19.66,1h-1.29l-1.71,0c-2.36-.08-4.72-.2-7.07-.39-1.22-.09-2.43-.2-3.64-.32a11.13,11.13,0,0,0-3.15-.14c-.16,0-.26.37-.1.47a7,7,0,0,0,2.69.52l3,.27c2,.16,4,.29,6,.37Q313.19,252.33,319.05,252.14Zm18.2-28.87q4.78-.65,9.56-1.35l.15-.7c-3.21.43-6.42.86-9.64,1.27-5.86.75-11.76,1.32-17.62,2.12-.36,0-.54.81-.07.77C325.51,224.89,331.39,224,337.25,223.27Zm10.29-6.2.06-.75q-10.73,2-21.52,3.44c-.43.06-.73,1-.19.89C333.15,219.77,340.38,218.56,347.54,217.07Zm-44.71,23.84a149.81,149.81,0,0,0,37.91-2c.1-.23.21-.46.32-.69q-8,1.28-16.17,1.86c-7.32.51-14.66.47-22,.33C302.71,240.4,302.62,240.89,302.83,240.91Zm34.73,4.33.42-.78a176.58,176.58,0,0,1-38.53,1c-.21,0-.31.45-.1.48A129.18,129.18,0,0,0,337.56,245.24Z" style="fill:#455a64"></path><path d="M272.29,287.88a73.83,73.83,0,0,1,8.14-18.37c3.8-6.48,8.47-12.38,13.09-18.27a170.23,170.23,0,0,1,29-29.39,157.52,157.52,0,0,1,20.13-13.31c.43-.24.44.5.16.69a200.82,200.82,0,0,0-31.45,25.67,190.21,190.21,0,0,0-13.75,15.46,202.25,202.25,0,0,0-13.32,17.95c-2.25,3.58-6.44,12.31-9.93,22.52s-5.92,20.75-8.42,38.47a1.39,1.39,0,1,1-2.76-.35C264.49,314.88,268.94,298.57,272.29,287.88Z"></path><path d="M319.78,57.65s-2.89,4-9.53,6.24-19.59,13-22.45,18.67a91.65,91.65,0,0,1-9.29,14.5c-2.66,3.41-5.05,16.8-6.45,21.37s-8.6,17.15-10.7,26.22-4.45,40.19-.17,53.06,6.95,14.48,6.95,14.48c1-.58,1.88-1.25,2.82-1.87a96.54,96.54,0,0,0,34.8-40.09c5-10.84,7.79-22.41,10.24-34,2.53-12,9.2-26.79,10.85-34.67s2.61-18.42-1.34-25S318.15,62.82,319.78,57.65Z" style="fill:#37474f"></path><path d="M328,94.49c-.05.49-.1,1-.17,1.44q-5.81,4.48-12,8.37-4.14,2.58-8.47,4.86c-1.44.76-2.89,1.52-4.37,2.21a21.86,21.86,0,0,1-4.58,1.85c-.13,0-.13-.26,0-.31a34.06,34.06,0,0,1,5-2.68q2.43-1.23,4.81-2.55a149.21,149.21,0,0,0,16.53-10.61C325.75,96.23,326.86,95.37,328,94.49ZM319.3,114.7a149.34,149.34,0,0,1-17.12,10.22c-1.62.83-3.27,1.63-4.92,2.39a39.43,39.43,0,0,0-5.21,2.58c-.11.07-.12.45.06.41,3.23-.69,6.36-2.46,9.3-3.91s5.92-3.06,8.8-4.73a150.39,150.39,0,0,0,13.06-8.56c.2-.58.4-1.14.59-1.71C322.36,112.52,320.85,113.63,319.3,114.7Zm-7,9.06q-5.1,3.21-10.42,6c-1.76.95-3.53,1.88-5.32,2.76a41.36,41.36,0,0,1-6.42,2.4c-.25.08-.16.62.1.63,2.1.05,4.17-.93,6-1.81s3.64-1.78,5.43-2.72c3.74-1.95,7.4-4.07,11-6.31,2.87-1.79,5.67-3.69,8.43-5.64l.6-1.73Q317.14,120.72,312.33,123.76Zm2,4.17a160.41,160.41,0,0,1-17.08,10.36c-3.33,1.74-6.82,3.2-10.07,5.08-.19.11-.06.64.18.57a59.85,59.85,0,0,0,9.27-4.11c3-1.54,6-3.2,8.91-4.94A159.57,159.57,0,0,0,318.8,126c.19-.6.39-1.19.58-1.79C317.72,125.49,316,126.73,314.32,127.93Zm-2.18-30.19c-3.39,2.13-7,3.93-10.39,6-.19.12-.05.68.19.58a76.43,76.43,0,0,0,10.18-5.62q4.77-2.94,9.32-6.22c2.31-1.67,4.57-3.43,6.8-5.22,0-.41,0-.82-.07-1.22-2.24,1.83-4.5,3.64-6.82,5.36Q316.87,94.77,312.14,97.74ZM312,78.23c-.1.1-.06.44.13.38,1.94-.62,3.76-2.07,5.44-3.17s3.57-2.4,5.3-3.67c-.16-.31-.31-.61-.46-.92-1.72,1.29-3.45,2.56-5.23,3.77A38.33,38.33,0,0,0,312,78.23Zm-3.93,9.1a87.55,87.55,0,0,0,13-8c1.42-1,2.8-2.1,4.18-3.19l-.48-.81c-1.36,1.08-2.73,2.14-4.13,3.16-4.12,3-8.41,5.73-12.68,8.49C307.85,87,307.89,87.41,308.06,87.33Zm15.05-4.41q-8.42,5.89-17.25,11.16c-.16.1-.07.54.12.43A198.16,198.16,0,0,0,323.14,84c1.4-1,2.81-1.94,4.21-2.92-.09-.34-.19-.67-.29-1C325.75,81,324.44,82,323.11,82.92Zm-46,97.22A48.1,48.1,0,0,0,289,174.8q5.63-3.35,11-7.08c3.28-2.26,6.48-4.64,9.62-7.1l.63-1.86-.32.26q-4.92,3.94-10.1,7.6t-10.56,6.94A63.59,63.59,0,0,1,277,179.71C276.88,179.76,276.94,180.19,277.11,180.14Zm14-68.36c.33,2.47.71,4.94,1.14,7.39a59.4,59.4,0,0,0,1.53,7.27c.06.19.24,0,.23-.1-.27-2.24-.82-4.47-1.2-6.69s-.68-4.23-1-6.36c-.57-4.35-1-8.73-1.25-13.11a172,172,0,0,1,.11-21.66c-.25.28-.49.57-.72.85-.11,2.09-.19,4.19-.24,6.27A169.2,169.2,0,0,0,291.1,111.78Zm11,57.81a143.08,143.08,0,0,1-17.27,11.85c-3.43,2-6.94,3.72-10.49,5.43-.27.13-.12.76.17.65a89.65,89.65,0,0,0,18.74-10c4.84-3.25,9.46-6.8,14-10.5.33-.78.65-1.57.95-2.35C306.13,166.31,304.12,168,302.07,169.59Zm-41.22,27c.11.39.22.77.34,1.14.2.6.4,1.18.6,1.73q2.82,4.81,6,9.4c.16.23.32-.18.22-.34C265.52,204.59,263.12,200.61,260.85,196.57Zm25.93.4a126.49,126.49,0,0,1-17.42,7.73,102.93,102.93,0,0,1-10.11-17.77c.07.72.14,1.43.22,2.13a80.83,80.83,0,0,0,9.46,15.85c-.05.11,0,.33.1.3l.12,0,.17.22c.24.29.42-.1.29-.33A60.58,60.58,0,0,0,285,199.16c.95-.9,1.88-1.83,2.8-2.78Zm22.5-47.92a169.69,169.69,0,0,1-18,10.48c-3.5,1.74-7.05,3.36-10.62,5-.36.17,0,.93.34.79a149.14,149.14,0,0,0,32.46-17.71c.14-.55.27-1.11.41-1.66Q311.58,147.51,309.28,149.05ZM293.06,152c-1.67.89-3.36,1.78-5.06,2.64a48.27,48.27,0,0,0-5.25,2.72c-.12.08-.12.4.07.35a27.58,27.58,0,0,0,4.41-1.8c1.56-.73,3.12-1.47,4.66-2.26q4.58-2.36,9-5,7.5-4.45,14.52-9.63c.1-.49.2-1,.31-1.46-1.74,1.3-3.5,2.59-5.29,3.83A177.79,177.79,0,0,1,293.06,152Zm18.72-17.21a179.37,179.37,0,0,1-17.19,10.85c-3.29,1.82-6.77,3.35-10,5.29-.18.1-.08.55.15.47a68.8,68.8,0,0,0,9.09-4.44c3-1.59,5.88-3.3,8.74-5.07q7.49-4.65,14.49-10c.12-.44.24-.89.37-1.33C315.58,132,313.7,133.38,311.78,134.75Zm-4-69.79a106.5,106.5,0,0,0-1.71,14.79,58.43,58.43,0,0,0,.28,11.9c.05.28.37.33.38,0,.15-3.28-.18-6.59-.07-9.88a104,104,0,0,1,.81-10.42c.29-2.26.66-4.52,1.09-6.77ZM278,173.89a73.66,73.66,0,0,0,9.51-4.7q4.56-2.49,9-5.23a180.54,180.54,0,0,0,15.43-10.78l.45-1.61c-2.28,1.79-4.58,3.54-6.93,5.22A195.73,195.73,0,0,1,287.87,168c-3.29,1.85-6.74,3.44-10,5.37C277.73,173.47,277.82,174,278,173.89Zm46.77-70.34c-3.19,2.42-6.45,4.76-9.79,7a111.23,111.23,0,0,1-10.19,6.07c-1.72.89-3.48,1.71-5.26,2.5a50.45,50.45,0,0,0-5.34,2.29c-.12.07-.12.42.06.39a23.36,23.36,0,0,0,5.66-1.87c1.82-.74,3.59-1.58,5.35-2.46a109.43,109.43,0,0,0,10.4-6c3.3-2.15,6.5-4.47,9.64-6.84l.95-.73c.17-.63.32-1.24.45-1.81C326.09,102.56,325.45,103.06,324.8,103.55Zm-51.51,53.62q2,7,4.43,13.89c.14.37.45.06.35-.24a252.67,252.67,0,0,1-10.35-42.57c-.19.39-.37.79-.56,1.19.14.87.27,1.74.41,2.6A227.76,227.76,0,0,0,273.29,157.17Zm-3.6,16.65a86.91,86.91,0,0,0,4.92,11.74c.15.28.35,0,.28-.24-1.22-3.44-2.78-6.77-4.07-10.19s-2.53-7.09-3.61-10.7a172.55,172.55,0,0,1-5-21.4c0-.31-.09-.62-.15-.94-.17.57-.33,1.13-.47,1.68A171.52,171.52,0,0,0,269.69,173.82Zm-4.93-35a191.13,191.13,0,0,0,6.1,25.53c1.51,4.82,3.22,9.58,5.09,14.27.21.51.76.25.56-.26a198,198,0,0,1-11.55-44l-.66,1.57C264.45,136.91,264.6,137.87,264.76,138.84Zm5.81-11.25c1.6,7.66,3.43,15.28,5.53,22.81,1.2,4.33,2.48,8.64,3.81,12.93.13.42.59.28.46-.14-3.93-13.41-7.25-27-9.95-40.75-.2.45-.41.91-.64,1.4C270,125.09,270.31,126.34,270.57,127.59Zm4.52.82c2,8.78,4.19,17.53,6.88,26.13.12.39.54.29.44-.12-2.27-8.77-4.54-17.54-6.52-26.38-1-4.56-1.88-9.15-2.76-13.74-.22.9-.42,1.72-.61,2.45C273.32,120.66,274.21,124.55,275.09,128.41Zm9.19,58.88c-4,2.22-8.24,4.14-12.25,6.41-.3.17-.08.87.25.73,3.87-1.62,7.67-3.56,11.37-5.51a120.9,120.9,0,0,0,10.7-6.3c2.82-1.87,5.53-3.9,8.16-6,.49-.87,1-1.76,1.43-2.66A130.29,130.29,0,0,1,284.28,187.29Zm-24.49-30a187.28,187.28,0,0,0,7.67,21c1.71,3.92,3.58,7.77,5.55,11.56.22.43.58,0,.4-.33a196.72,196.72,0,0,1-13.54-34.75c-.07.67-.14,1.36-.2,2.06Zm7.27,25.43q-2.13-4.83-4-9.8c-1.39-3.73-2.64-7.51-3.78-11.33l-.12,1.91A172.34,172.34,0,0,0,266,181.84a99,99,0,0,0,5.38,11c.2.33.43-.08.32-.32C270.22,189.21,268.53,186,267.06,182.69Zm14.2,12c-3.41,1.69-7,3-10.4,4.73-1.38-2.73-2.9-5.38-4.24-8.13-1.56-3.2-3-6.47-4.3-9.78s-2.44-6.48-3.48-9.78c0,.78,0,1.56,0,2.35a142.25,142.25,0,0,0,6.5,16.13,93.28,93.28,0,0,0,5,9.47h0c-.19.1-.07.62.17.56l.17-.05c.18.27.35.56.53.84s.44-.1.33-.34l-.33-.65a70.26,70.26,0,0,0,10.63-4.46q5.4-2.58,10.53-5.66c.73-.43,1.46-.88,2.19-1.34.65-.83,1.29-1.68,1.92-2.54q-2.34,1.53-4.75,3C288.3,191.08,284.81,193,281.26,194.73ZM304,67.14a106.57,106.57,0,0,0-2,20.07,74.32,74.32,0,0,0,1.06,12.19c.08.43.66.53.57,0-1.82-11-.8-22,1.33-32.86Zm5.72,14.33c0,.31.46.68.47.23a104.57,104.57,0,0,1,2.53-18.81l-.95.41A86.51,86.51,0,0,0,309.76,81.47Zm10-16c-.7.52-1.4,1-2.11,1.56a11.76,11.76,0,0,0-1.79,1.42c-.09.1-.06.42.12.37a14.29,14.29,0,0,0,3.86-2.17l.64-.46c-.11-.35-.23-.69-.32-1Zm-20.13,4.84-1.1.87a121.45,121.45,0,0,0-.58,23.27,77.73,77.73,0,0,0,1.92,13.67c.09.34.4.28.36-.06-.35-3.92-1-7.8-1.28-11.73s-.4-7.72-.35-11.59A124.52,124.52,0,0,1,299.59,70.32Zm13.67,3.46c0,.22.25.45.33.16,1.17-4.38,2.18-8.76,3.63-13.07.11-.33.22-.65.34-1-.27.22-.56.45-.87.68A71.08,71.08,0,0,0,313.26,73.78ZM285.73,86.37c-.07,1.68-.12,3.37-.13,5a164.43,164.43,0,0,0,1.8,26.13,114.85,114.85,0,0,0,3,14.6c.11.37.48.29.41-.1a231.31,231.31,0,0,1-3.83-26.2,168.37,168.37,0,0,1-.21-21.31C286.42,85.16,286.08,85.77,285.73,86.37Zm-3.68,7.76a181.13,181.13,0,0,0,2.59,27.41,162.51,162.51,0,0,0,3.61,15.9c.12.4.54.29.44-.11A197.72,197.72,0,0,1,283,90.82c-.32.49-.64,1-1,1.42C282,92.87,282,93.5,282.05,94.13Zm12.54-19.57-.09,1.13a188.68,188.68,0,0,0,0,26.37,131.9,131.9,0,0,0,1.81,15.09c.07.34.4.27.37-.06a259.46,259.46,0,0,1-1.76-26.42q0-8.52.66-17Zm-15.23,27.38a172,172,0,0,0,3.05,25.6,145.55,145.55,0,0,0,3.64,14.53c.1.31.43.14.36-.15A184.17,184.17,0,0,1,280,95.08c-.27.37-.54.72-.8,1.06C279.23,98.08,279.28,100,279.36,101.94Zm-3.27.76c.17,2.78.38,5.54.67,8.31a187.85,187.85,0,0,0,4.08,23.8,92.31,92.31,0,0,0,3.74,13c.13.32.36.08.3-.17-.84-3.77-2.05-7.46-3-11.21s-1.78-7.82-2.49-11.77a190.55,190.55,0,0,1-2.7-23.83C276.5,101.41,276.29,102,276.09,102.7Z" style="fill:#455a64"></path><path d="M320,57.76c-16.05,42.34-33.3,85.61-44.7,129.39-2.36,9.62-4.47,20-6.5,29.67-3.5,19.91-6.46,39.9-8.32,60-.44,4.21-3.65,50-4,54.26-.13,1.55-.84,3.56-2.57,2.35a2.48,2.48,0,0,1-.73-2c-.06-2.37,2.47-46.38,2.71-48.74.21-2.08.32-4.11.51-6.18,1.95-20.31,5-40.32,8.58-60.42,2.11-9.86,4.31-20.06,6.78-29.83,9.16-34.48,22.33-67.69,35.85-100.62,3.88-9.4,7.82-18.77,11.89-28.08Z"></path><path d="M273.39,218.25a16,16,0,0,0-13.57-1.08c-4.38,1.67-7.8,5.7-7.95,10.14-4.11-1.28-10.06.32-12.27,4.05-2.45,4.12-.5,10.9,1.42,14.89,4.81,10,16.6,16.13,26.09,21.91,10.11,6.16,20.55,12.27,28.46,21,1.6,1.75,3.46,3.77,5.9,3.68,1.44-.05.83-17.16.68-18.81a78.11,78.11,0,0,0-3.24-17.42c-2.42-7.47-5.26-14.88-9.43-21.63C286,229.22,280.28,221.82,273.39,218.25Z" style="fill:#37474f"></path><path d="M247.76,255c-.39-.36-.76-.73-1.13-1.1a50.23,50.23,0,0,1-.19-11.55,52.84,52.84,0,0,1,1.27-7.9,29,29,0,0,1,2.51-7.53c.21,0,.41.06.62.1-.58,2.43-1.49,4.78-2.07,7.21a56.18,56.18,0,0,0-1.35,8.44,55.61,55.61,0,0,0-.1,8.06C247.41,252.2,247.58,253.62,247.76,255Zm-.94-28a13.31,13.31,0,0,0-1.66.38c-2.44,3.25-3.09,7.6-3.65,11.49-.32,2.22-.59,4.52-.72,6.85.07.16.15.34.23.49.25.54.54,1.05.83,1.56a73.8,73.8,0,0,1,.78-8C243.24,235.59,243.81,230.47,246.82,227Zm5.44-2.08c-.08.27-.15.54-.21.82a57.7,57.7,0,0,0,7.38-2.27,59.74,59.74,0,0,1,6.52-1.79,39.51,39.51,0,0,1,7.13-.69c1.63,0,3.25.13,4.87.24-.49-.39-1-.77-1.5-1.13a33.86,33.86,0,0,0-11,.58,53.48,53.48,0,0,0-6.93,2A55.76,55.76,0,0,0,252.26,225Zm17.3-8.23c-1.65.16-3.3.42-4.9.68a34.68,34.68,0,0,0-9.23,2.52,13.19,13.19,0,0,0-1.6,1.84,35.23,35.23,0,0,1,10.34-3.35,62.91,62.91,0,0,1,7.72-.88A17.85,17.85,0,0,0,269.56,216.73Zm-5.79,17.13c-.27-.41-.76,0-.53.35,1.9,3.23,2.13,7.35,2.11,11s-.46,7-.83,10.51a65.12,65.12,0,0,0-.55,10.58l1.16.7c-.05-.69-.09-1.38-.09-2.08a90.72,90.72,0,0,1,.77-10.79,68.3,68.3,0,0,0,.53-10.31C266.19,240.38,265.68,236.84,263.77,233.86Zm12.59,10.42c-.24-.08-.23.41-.06.48,4.22,2,9,2.54,13.6,3.53a48.08,48.08,0,0,1,6.28,1.7l.52.21c-.14-.4-.29-.79-.44-1.19a48.25,48.25,0,0,0-6-1.61C285.61,246.4,280.94,245.64,276.36,244.28Zm-3.94-4.21c-.48-.25-.51.51-.17.69,4,2.24,8.77,2.19,13.3,2.6a35.32,35.32,0,0,1,7.42,1.46q1,.31,1.89.69c-.17-.41-.36-.82-.54-1.23a35,35,0,0,0-8.17-1.82C281.54,242,276.6,242.29,272.42,240.07Zm12.72,14.52a16.49,16.49,0,0,0,4.86,2.5c2.18.83,4.42,1.5,6.56,2.43a35.6,35.6,0,0,1,3.69,1.89c-.09-.39-.19-.78-.29-1.17-1-.54-2-1-3-1.47-2.17-.95-4.45-1.62-6.68-2.43a28.75,28.75,0,0,1-3.13-1.32c-1-.48-1.86-1.16-2.86-1.54-.1,0-.11.13-.07.18s.2.24.31.36a.31.31,0,0,0,0,.35c4,7.89,0,16.31-.67,24.52l1,.7c.24-3.24.88-6.46,1.44-9.71C287.12,264.8,287.45,259.38,285.14,254.59Zm-14.6,1.77a70.43,70.43,0,0,0-.25-10.77c-.33-3.16-1-6.65-2.88-9.38-.13-.19-.25.13-.2.25,3,6.86,2.72,14.7,2.16,22-.26,3.42-.9,7.06-.83,10.59l1.09.66C269.5,265.27,270.33,260.76,270.54,256.36Zm30.83,26.89a55.6,55.6,0,0,1-4.41-5.18c-.17-.22-.34.18-.23.34a46.58,46.58,0,0,0,4.36,5.66c.42.43.85.85,1.31,1.25v-1.06C302.05,283.93,301.7,283.6,301.37,283.25Zm-12.61-23.56A22.47,22.47,0,0,0,292,262c1.87,1.08,3.83,2,5.8,2.88a28.72,28.72,0,0,1,3.55,2c-.06-.33-.11-.66-.16-1a20.4,20.4,0,0,0-2.56-1.39,47.58,47.58,0,0,1-6-2.84,37.6,37.6,0,0,1-5.25-3.93c-.33-.29-.41.36-.2.56s.5.46.75.68a.09.09,0,0,0,0,.05c2.44,5.67,1.18,11.44,0,17.23a49.79,49.79,0,0,0-.78,5.16l.91.73c.21-2.5.67-5,1.1-7.45C290,269.83,290.83,264.35,288.76,259.69Zm-10.57,1c.72-5.35.85-11.16-2.18-15.95-.2-.31-.44.08-.33.3,2.44,5.18,2.31,10.76,1.48,16.26-.45,3-1.07,6-1.4,9-.11,1-.2,2-.25,3.06l.94.6a41.82,41.82,0,0,1,.35-4.18C277.17,266.69,277.79,263.69,278.19,260.65ZM273,267.17c.38-3.11,1.13-6.17,1.56-9.27a33.29,33.29,0,0,0,.11-8.75c-.34-2.69-.86-5.75-2.3-8.13-.12-.21-.32,0-.29.15.23,1.33.74,2.61,1.06,3.92a33,33,0,0,1,.81,4.72,35.85,35.85,0,0,1-.55,9.64,90.5,90.5,0,0,0-1.5,9.23c-.05.78-.08,1.57-.08,2.36l1,.58A28.79,28.79,0,0,1,273,267.17Zm8.6-17.66c-.35-.14-.35.48-.09.59,3.93,1.66,8.12,2.6,12.16,4a37.29,37.29,0,0,1,5.1,2.12l-.39-1.16a35.33,35.33,0,0,0-4.28-1.71C290,252,285.67,251.1,281.62,249.51Zm7.57-10.22a28.94,28.94,0,0,1,3.28,1c-.21-.42-.44-.83-.65-1.25a26.16,26.16,0,0,0-2.64-.79,45.41,45.41,0,0,0-7.25-1.05c-5.34-.4-10.67-.47-15.76-2.25-.19-.06-.19.31-.05.38,4.77,2.33,10.25,2.45,15.49,2.88A48.19,48.19,0,0,1,289.19,239.29ZM292,263.74c-.26-.34-.44.15-.29.38,1.55,2.53,4.39,4,7,5.38a28.93,28.93,0,0,1,3.25,2l-.12-1.07c-.47-.32-.95-.63-1.44-.91C297.36,267.81,294.07,266.46,292,263.74ZM280.58,276.6l.85.58a16.41,16.41,0,0,1,0-1.72,85.69,85.69,0,0,1,1.06-9c.76-5.25,1.62-11.79-1.65-16.49-.08-.12-.16.06-.14.13a25.21,25.21,0,0,1,1.67,9.11,65,65,0,0,1-1,9A54.28,54.28,0,0,0,280.58,276.6Zm20.28.1a21.54,21.54,0,0,1,1.47,1.87c0-.42,0-.83,0-1.22-.26-.33-.52-.66-.8-1-2.13-2.45-5.1-4-7.16-6.52-.27-.32-.46.13-.3.36a14.62,14.62,0,0,0,3.14,3.29A28.08,28.08,0,0,1,300.86,276.7Zm-6.14,8.36c.2-4.36,1.14-8.85.15-13.18-.05-.24-.32-.14-.29.08.63,4.77-.59,9.39-.6,14.14,0,.45,0,.91,0,1.37l.79.83A23.22,23.22,0,0,1,294.72,285.06Zm-2.45-3.31c.6-4.39,1.54-8.75.84-13.18-.06-.38-.48-.28-.43.09.71,5-.82,9.87-1.35,14.8,0,.43-.08.88-.12,1.34l.72.66C292,284.21,292.1,283,292.27,281.75Zm-31.78-20c.09-3.62.57-7.2.95-10.79.73-6.76,1.12-13.82-1.91-20.16-.17-.37-.58-.11-.45.23,2.64,6.79,2,14,1.17,21-.38,3.26-.78,6.53-.85,9.82,0,.53,0,1.06,0,1.59l1.14.7C260.49,263.41,260.47,262.6,260.49,261.79ZM273.7,228.7c-6,.09-11.95.35-17.94-.62-.26-.05-.24.41,0,.47,5.56,1.65,11.56,1.19,17.31,1.14A54.25,54.25,0,0,1,286.89,231c-.25-.36-.51-.71-.77-1.06A41.16,41.16,0,0,0,273.7,228.7Zm-4.28-4.55a61.52,61.52,0,0,0-7.63,1.11,31.58,31.58,0,0,1-8.27.94c-.44,0-.22.77.16.8,5.41.42,10.65-1.46,16-1.8a48.61,48.61,0,0,1,7.63.12c1.92.19,3.81.54,5.71.85-.33-.38-.68-.75-1-1.12A41,41,0,0,0,269.42,224.15Zm-13.67,34c.41-3.66,1.38-7.21,1.62-10.88a87.91,87.91,0,0,0,0-10.52c-.16-2.95-.39-6.89-2.53-9.27-.27-.29-.47,0-.41.31.18.76.6,1.48.85,2.23a16,16,0,0,1,.59,2.36,30.13,30.13,0,0,1,.36,4.93,109.83,109.83,0,0,1-.29,11c-.35,3.56-1.39,7-1.61,10.6,0,.43-.05.87-.05,1.31l1.33.9A25.26,25.26,0,0,1,255.75,258.1Zm22.88-24.68c-5.51-.34-11.24-.27-16.57-1.78-.3-.09-.27.55,0,.62,5,1.52,10.15,1.84,15.38,2.15a76.33,76.33,0,0,1,8,.77,35,35,0,0,1,3.94.87q.48.13,1,.3c-.26-.44-.51-.89-.78-1.33-1.11-.32-2.26-.54-3.33-.74A59.85,59.85,0,0,0,278.63,233.42Zm-27.9,22a45,45,0,0,1,1-9.81c1.14-5.81,3-12,1.48-17.87-.09-.35-.55-.35-.52.05a36.27,36.27,0,0,1-.44,9.92c-.58,3.23-1.42,6.4-2,9.63a39.87,39.87,0,0,0-.67,9.37l1.31,1.06C250.81,256.94,250.75,256.16,250.73,255.37Z" style="fill:#455a64"></path><path d="M287.27,255.32A98.61,98.61,0,0,0,261,230.18q-4.25-2.84-8.74-5.26a9.48,9.48,0,0,0-.4,2.31c2,1.18,3.9,2.37,5.81,3.63a112.87,112.87,0,0,1,14.2,11,84.52,84.52,0,0,1,20.56,28c2.58,5.83,3.95,11.94,5.81,18,.1.34,1,.89,1.08.25.47-5.85-1.51-11.9-3.68-17.32A76.36,76.36,0,0,0,287.27,255.32Z" style="fill:#263238"></path><path d="M296.33,143.57c-7.93,7.3-17.51,15.91-18.86,28a15.39,15.39,0,0,1-.1-2.23,35.88,35.88,0,0,1,6.54-20.07c7.9-11.44,16.62-14,18.51-26.6,0-.19.13.28.19,1.22,0,0,0,0,0,0C302.84,127.54,302.59,137.82,296.33,143.57Z" style="fill:#BA68C8"></path><path d="M296.33,143.57c-7.93,7.3-17.51,15.91-18.86,28a15.39,15.39,0,0,1-.1-2.23,35.88,35.88,0,0,1,6.54-20.07c7.9-11.44,16.62-14,18.51-26.6,0-.19.13.28.19,1.22,0,0,0,0,0,0C302.84,127.54,302.59,137.82,296.33,143.57Z" style="fill:#fff;opacity:0.30000000000000004"></path><path d="M283.91,149.27a55.12,55.12,0,0,1,4.22-5.33l-.26.37c-1,1.57-1.89,3.21-2.82,4.83a18.71,18.71,0,0,1,2.17-1.46,14.63,14.63,0,0,0-2.29,3.76c1-1.12,2.13-2.18,3.26-3.2a18,18,0,0,1,1.68-1.31,19.23,19.23,0,0,0,1.84-1.18c-1.26,1.15-2.46,2.37-3.6,3.64a8.7,8.7,0,0,0-1.49,2.08l7.05-5.58c.84-.67,1.67-1.51,2.56-2.22-7.91,7.27-17.41,15.86-18.76,27.9a15.39,15.39,0,0,1-.1-2.23A35.88,35.88,0,0,1,283.91,149.27Z" style="fill:#BA68C8;opacity:0.6000000000000001"></path><path d="M279.4,158.05c-.08.65-.2,1.42-.24,1.91a14.39,14.39,0,0,1,1.68-3.27,26.92,26.92,0,0,0-1.34,3.57c1.07-1.23,1.92-2.65,2.9-3.95a32.34,32.34,0,0,0-2.79,5.66.84.84,0,0,0,.21-.21,27.83,27.83,0,0,1,3.44-4.4,30.12,30.12,0,0,0-5.79,14.21,15.39,15.39,0,0,1-.1-2.23A34.44,34.44,0,0,1,279.4,158.05Z" style="opacity:0.2"></path><path d="M295.47,137.45a43.8,43.8,0,0,0-5,4.88,31.86,31.86,0,0,1,4.52-3.08,32.6,32.6,0,0,0-6.85,7.22,27.88,27.88,0,0,1,4.71-4.38c.91-.62,1.89-1.13,2.81-1.73A16.45,16.45,0,0,0,297.4,139a21.2,21.2,0,0,1-3.86,4.83,15,15,0,0,0,4.33-4.1c-.21.63-.42,1.25-.64,1.87a36,36,0,0,0,2.59-5,6.68,6.68,0,0,0,.7-3.05,9.38,9.38,0,0,1-1.81,4.09,8.12,8.12,0,0,0,.86-2.93,8.69,8.69,0,0,1-3,3.75,9.35,9.35,0,0,0,1.11-1.81l-1.26.91a12.33,12.33,0,0,0,3.2-5.84C299,134,297.16,135.88,295.47,137.45Z" style="fill:#fff;opacity:0.30000000000000004"></path><path d="M305.34,153.4c-1,.43-16.34,7-23.37,14.55l-1.82.38-3.79.81c.29-.06,1-1.51,1.17-1.77.56-.82,1.15-1.64,1.77-2.42a19.74,19.74,0,0,1,2.54-2.71,6.94,6.94,0,0,1,2.71-1.74c.36-.08.86,0,.94.33a.87.87,0,0,1,0,.32,3.7,3.7,0,0,1-.38.95c1.34-.69,2.66-1.44,3.93-2.26a2.16,2.16,0,0,0,.91-.91.83.83,0,0,0-.34-1,2.55,2.55,0,0,0-1.43-.19c2.57-1.42,5.53-1.81,8.38-2.32S302.39,154.11,305.34,153.4Z" style="fill:#455a64"></path><path d="M276.36,169.14c.29-.06,1-1.51,1.17-1.77.4-.58.81-1.15,1.23-1.72,1.6-1.35,3.22-2.92,5.17-3.69a15.17,15.17,0,0,0-2,1.94l1-.57a2.18,2.18,0,0,1,.74-.3,16,16,0,0,0-2.11,2l2.64-1.54a8.42,8.42,0,0,0-1.3,1.67c7.18-6.55,21.4-11.44,22.41-11.77-1,.4-14.15,6-21.68,12.89-.29.25-.56.51-.83.77l-.06.07c-.28.27-.55.54-.8.82l-1.82.38h0Z" style="fill:#37474f"></path><path d="M277.44,163.76l0-.07h0a37,37,0,0,1-1.24-12c.48-6.16,3.53-22,2.22-28.95a2.45,2.45,0,0,0-.06-.29C279.34,125.24,284.9,138.79,277.44,163.76Z" style="fill:#BA68C8"></path><path d="M277.44,163.76l0-.07h0a37,37,0,0,1-1.24-12c.48-6.16,3.53-22,2.22-28.95a2.45,2.45,0,0,0-.06-.29C279.34,125.24,284.9,138.79,277.44,163.76Z" style="fill:#fff;opacity:0.30000000000000004"></path><path d="M277.44,163.76l0-.07h0a37,37,0,0,1-1.24-12c.25-3.22,1.2-9.08,1.87-14.94a22.73,22.73,0,0,1-.12,3c-.2,2.56-.27,5-.66,7.56a13.88,13.88,0,0,0,1-3.3,58.26,58.26,0,0,1-.66,9.13,28.4,28.4,0,0,0,1.18-3.55,16.24,16.24,0,0,1-.35,4.31,20.5,20.5,0,0,0,2.25-5.53A94.26,94.26,0,0,1,277.44,163.76Z" style="fill:#BA68C8;opacity:0.6000000000000001"></path><path d="M276.8,158.8a25,25,0,0,1,.28-3l.25,3.4a18,18,0,0,0,1.24-4.55,27.33,27.33,0,0,1-.89,5.73,4.57,4.57,0,0,0,1.2-2c-.41,1.73-.89,3.51-1.44,5.37l0-.07h0a37.62,37.62,0,0,1-1.29-11.17A40.06,40.06,0,0,0,276.8,158.8Z" style="opacity:0.2"></path><path d="M278.45,140.46a29.25,29.25,0,0,0,1.14-3.66,77.29,77.29,0,0,1-.2,8.61c.2-1.21.57-3.52.65-4.62a12.07,12.07,0,0,1,.26,2.34,25.75,25.75,0,0,0,.32-3.61q0-1-.09-2a12.55,12.55,0,0,1-.16-1.82l-.24,2.29c-.12-1.21-.24-2.41-.38-3.62a9.06,9.06,0,0,1-.36,1.56c-.19-1.71-.06-3.44-.29-5.16,0,1.57,0,3.1-.15,4.66S278.64,138.78,278.45,140.46Z" style="fill:#fff;opacity:0.30000000000000004"></path><path d="M277.44,163.76s-1-3-6.06-7.48c-4.59-4-6.67-8.53-6.37-16.64v-.11c0-.83.08-1.7.17-2.6A18.2,18.2,0,0,0,269,147.16c3.21,3.89,7.15,9.21,8.21,14.25A11.78,11.78,0,0,1,277.44,163.76Z" style="fill:#BA68C8"></path><path d="M277.44,163.76s-1-3-6.06-7.48c-4.59-4-6.67-8.53-6.37-16.64v-.11c0-.83.08-1.7.17-2.6A18.2,18.2,0,0,0,269,147.16c3.21,3.89,7.15,9.21,8.21,14.25A11.78,11.78,0,0,1,277.44,163.76Z" style="fill:#fff;opacity:0.30000000000000004"></path><path d="M268.48,153A11.24,11.24,0,0,0,270,154.4a13.37,13.37,0,0,1,1.69,1,17.51,17.51,0,0,1-2.65-3.95,9.27,9.27,0,0,1,1,1c1.21,1.32,2,1.95,3.22,3.27a9.44,9.44,0,0,0-1.27-2.66,15.76,15.76,0,0,1,2.19,2.56.92.92,0,0,0-.13-.85c-.51-1-1-2-1.52-2.93a27.65,27.65,0,0,1,4.58,9.5,11.89,11.89,0,0,1,.26,1.86l-.12.15c-.4-.9-1.82-3.57-5.92-7.14a18.19,18.19,0,0,1-4.48-5.6C267.45,151.42,267.9,152.31,268.48,153Z" style="fill:#BA68C8;opacity:0.6000000000000001"></path><path d="M273.74,158.53q.19.15.39.33l1.69,1.51c-.44-.9-.89-1.81-1.33-2.72.09.19.39.39.53.56a5.74,5.74,0,0,1,.51.68c.33.51.73,1,1.05,1.5a4.94,4.94,0,0,0-.28-1.79.75.75,0,0,0,.11.28,16.49,16.49,0,0,1,.75,2.53,11.89,11.89,0,0,1,.26,1.86l-.12.15A18,18,0,0,0,273.74,158.53Z" style="opacity:0.2"></path><path d="M267.7,150.73c-.13-.85-.26-1.69-.38-2.53a10.33,10.33,0,0,0,3.36,4.13,29.82,29.82,0,0,1-2-3.51c.94.9,1.85,1.84,2.71,2.83a12.14,12.14,0,0,0-3.61-4.46c.28.72.54,1.43.83,2.13a9.44,9.44,0,0,1-1.71-3.39,7,7,0,0,0,.08,1.71,3.54,3.54,0,0,0-.23-.53c-.05-.16-.08-.31-.13-.47-.14-.4-.28-.81-.4-1.21-.25-.81-.45-1.62-.63-2.44a4.11,4.11,0,0,1,0,.78c0,.23,0,.46,0,.69a14.06,14.06,0,0,0,.26,1.58,18.55,18.55,0,0,0,1.4,3.77A4.89,4.89,0,0,1,267.7,150.73Z" style="fill:#fff;opacity:0.30000000000000004"></path><path d="M278.63,170.55l-1.85.5L273,172.11c5-9.17-6.76-11.72-18.3-13.42-11.22-1.66-13.21-6.53-13.32-6.81,12.13,8.15,19.68,2.34,29.15,4.74s7.83,10,7.83,10l0,.62Z" style="fill:#BA68C8"></path><path d="M278.63,170.55l-1.85.5L273,172.11c5-9.17-6.76-11.72-18.3-13.42-11.22-1.66-13.21-6.53-13.32-6.81,12.13,8.15,19.68,2.34,29.15,4.74s7.83,10,7.83,10l0,.62Z" style="fill:#fff;opacity:0.30000000000000004"></path><path d="M259.85,158.4c1.8.06,3.53.46,5.31.68a8.89,8.89,0,0,0-2.84-1.65,13.65,13.65,0,0,1,4.88,1.3,13.89,13.89,0,0,1,2,.93c.51.33,1.59,1,1.83,1.57a7.59,7.59,0,0,0-2.5-3.11,7.18,7.18,0,0,1,3.5,1.5c.38.32.81.61,1.19.93a8.25,8.25,0,0,1,.95,1.09c.12.15.25.3.37.46l.07.1a3.75,3.75,0,0,1,.24.36,5.28,5.28,0,0,0-.92-2.66c.67.17,1.12.84,1.53,1.35a9.68,9.68,0,0,1,1.2,1.88,10.32,10.32,0,0,1,1.06,4.29A6.83,6.83,0,0,1,277,171l-.17,0L273,172.11c5-9.17-6.76-11.72-18.3-13.42a36.27,36.27,0,0,1-3.9-.78c1.11.14,2.23.23,3.34.3C256,158.32,257.93,158.33,259.85,158.4Z" style="fill:#BA68C8;opacity:0.6000000000000001"></path><path d="M264.11,160.46c.65,0,1.29.13,1.94.24s1.2.22,1.79.35a5.78,5.78,0,0,1,1.67.43,17,17,0,0,0-2.38-1.36,11.67,11.67,0,0,1,6.18,3.58,4.32,4.32,0,0,0-.85-2,7.5,7.5,0,0,1,2.27,4.48,3.34,3.34,0,0,0,.14-1.85,16.28,16.28,0,0,1,.68,3,2.54,2.54,0,0,0,.36-2.06,5,5,0,0,1,.12,3.66,9.93,9.93,0,0,0,1.39-1,5.45,5.45,0,0,1-2.24,3.12c-.14.12-.55.44-1,.77l-1.17.33C276.53,165.53,271.5,162.36,264.11,160.46Z" style="opacity:0.2"></path><path d="M270.79,158a10.69,10.69,0,0,1,1.86,1c.05-.11,0-.22-.13-.29a7.28,7.28,0,0,0-1.69-1.19c-.64-.29-1.32-.48-2-.71a7.84,7.84,0,0,0-2.32-.33.11.11,0,0,0-.08,0c-.07.05,0,.15.08.19a3.62,3.62,0,0,1,1.14.72,14.06,14.06,0,0,0-2.49-.49,4.94,4.94,0,0,0-1.33,0s-.09,0-.11.05.06.18.16.21a27.34,27.34,0,0,1,4.11,1.51,2.32,2.32,0,0,0-1.18-1,7.68,7.68,0,0,1,3,.45,3.7,3.7,0,0,0-.86-.72A10.59,10.59,0,0,1,270.79,158Z" style="fill:#fff;opacity:0.30000000000000004"></path><path d="M261.72,156.12a29.31,29.31,0,0,1-5.23.88c-.77,0-1.54,0-2.31,0-.31,0-.62,0-.94,0a3.89,3.89,0,0,1-1.08-.11,8.4,8.4,0,0,0,1.74.62,16.92,16.92,0,0,1-3.32-.47,7.62,7.62,0,0,1-.88-.3,24.2,24.2,0,0,1-3.84-1.93l2,1.58a20.43,20.43,0,0,1-4-2.25,10.36,10.36,0,0,1-2.4-2.16.87.87,0,0,0-.05-.12C249.57,157.4,255.68,156.52,261.72,156.12Z" style="fill:#fff;opacity:0.30000000000000004"></path><path d="M325.53,160.39c-5.47,3.2-10.63,7-16.43,9.58-11.85,5.27-25.56,5.09-37.44,10.32a11.84,11.84,0,0,0-5.63,4.9,21.25,21.25,0,0,0,1-3.31,31.5,31.5,0,0,1,3.89-7.31c4.85-6.71,12.17-9.13,20.08-10.41C302.47,162.31,314.25,163.29,325.53,160.39Z" style="fill:#BA68C8"></path><path d="M300.06,166.31c7.19-.85,14.52-1.39,21.43-3.45A99,99,0,0,1,309.1,170c-11.85,5.27-25.56,5.09-37.44,10.32a12.67,12.67,0,0,0-1.9,1,21.19,21.19,0,0,1,8-6.31c.54-.24,1.14-.5,1.35-1.05a9.2,9.2,0,0,0-3.66,0C282.59,169,291.45,167.33,300.06,166.31Z" style="fill:#fff;opacity:0.45"></path></g></g></svg>
